<?xml version="1.0" standalone="no"?>
<!DOCTYPE svg PUBLIC "-//W3C//DTD SVG 20010904//EN"
 "http://www.w3.org/TR/2001/REC-SVG-20010904/DTD/svg10.dtd">
<svg version="1.0" xmlns="http://www.w3.org/2000/svg"
 width="586.000000pt" height="637.000000pt" viewBox="0 0 586.000000 637.000000"
 preserveAspectRatio="xMidYMid meet">
<metadata>
Created by potrace 1.16, written by Peter Selinger 2001-2019
</metadata>
<g transform="translate(0.000000,637.000000) scale(0.100000,-0.100000)"
fill="#000000" stroke="none">
<path d="M1355 6343 c-113 -59 -199 -157 -237 -272 -21 -62 -22 -88 -26 -443
-2 -252 0 -395 8 -431 35 -171 165 -310 337 -362 55 -17 198 -19 262 -4 158
36 304 180 347 344 17 61 20 752 4 835 -6 30 -21 78 -35 108 -32 70 -140 181
-215 221 l-58 31 -168 0 c-162 -1 -171 -2 -219 -27z m293 -294 c29 -15 54 -37
73 -67 l29 -46 0 -320 c-1 -336 -5 -372 -47 -418 -26 -29 -87 -58 -123 -58
-44 0 -104 34 -137 77 l-28 36 -3 346 c-2 343 -2 346 21 386 25 45 92 85 141
85 16 0 50 -10 74 -21z"/>
<path d="M4241 6343 c-71 -35 -152 -111 -195 -181 -64 -106 -67 -134 -64 -590
l3 -407 32 -68 c38 -80 131 -182 201 -220 85 -46 154 -60 272 -55 92 4 115 8
171 35 74 34 174 122 217 191 66 104 67 116 67 547 -1 373 -2 393 -23 461 -27
90 -94 181 -176 241 -94 70 -108 73 -290 73 -154 0 -163 -1 -215 -27z m290
-293 c21 -11 53 -39 69 -62 l30 -41 0 -337 c0 -332 0 -337 -23 -380 -26 -50
-90 -89 -146 -90 -50 0 -109 38 -139 90 l-27 45 0 336 0 335 27 41 c29 44 95
83 141 83 15 0 46 -9 68 -20z"/>
<path d="M805 6150 c-101 -20 -324 -118 -355 -155 -7 -8 -19 -15 -27 -15 -22
0 -276 -258 -324 -330 -24 -36 -56 -91 -71 -123 l-28 -57 0 -2463 c1 -2579 0
-2503 43 -2584 57 -106 193 -260 274 -309 80 -49 150 -82 202 -98 50 -15 274
-16 2429 -16 l2374 0 66 27 c89 35 162 86 264 182 93 88 163 178 190 243 16
40 17 195 17 2557 l1 2513 -25 50 c-46 92 -100 163 -207 274 -121 125 -189
178 -309 241 -67 35 -92 43 -136 43 l-53 0 0 -194 c0 -193 0 -195 23 -202 30
-9 124 -69 167 -107 92 -80 185 -241 220 -382 20 -79 20 -108 18 -2015 l-3
-1935 -28 -80 c-15 -44 -46 -111 -67 -149 -22 -38 -40 -74 -40 -81 0 -20 -103
-125 -122 -125 -10 0 -36 -13 -60 -29 -59 -39 -151 -77 -223 -90 -44 -9 -632
-11 -2220 -9 l-2160 3 -45 21 c-25 12 -62 35 -84 53 -42 34 -76 40 -96 16 -18
-21 -8 -128 18 -196 29 -73 116 -176 184 -217 l55 -32 2277 0 c1458 0 2284 3
2295 10 10 5 21 6 25 3 8 -8 -55 -44 -114 -65 -130 -45 -13 -43 -2215 -43
-1955 0 -2084 1 -2149 18 -108 28 -231 92 -296 156 -66 66 -142 203 -134 242
4 17 3 20 -4 10 -7 -10 -14 6 -26 57 -14 64 -16 281 -16 2230 0 2124 0 2160
20 2238 38 152 142 322 237 391 72 52 199 111 273 126 l65 13 3 197 2 197 -32
-1 c-18 -1 -51 -5 -73 -9z"/>
<path d="M2240 5960 l0 -180 778 2 777 3 3 178 2 177 -780 0 -780 0 0 -180z"/>
<path d="M780 4095 l0 -605 1620 0 1620 0 0 605 0 605 -1620 0 -1620 0 0 -605z
m3000 15 l0 -370 -1360 0 -1360 0 0 370 0 370 1360 0 1360 0 0 -370z"/>
<path d="M439 4286 c-45 -31 -69 -80 -69 -141 0 -62 25 -111 72 -142 l38 -26
0 -583 0 -584 368 0 367 0 14 -30 c34 -77 157 -107 232 -56 20 14 44 40 53 59
21 45 21 119 0 164 -54 113 -234 112 -288 -1 l-17 -36 -314 0 -315 0 0 534 0
533 38 26 c47 31 72 80 72 142 0 101 -62 165 -160 165 -42 0 -64 -6 -91 -24z"/>
<path d="M1660 2850 l0 -290 756 0 c416 0 754 -3 752 -7 -2 -5 -18 -36 -36
-71 -73 -141 -122 -345 -122 -513 0 -167 52 -376 130 -524 61 -115 94 -157
210 -269 173 -165 311 -240 541 -292 90 -20 134 -24 269 -24 207 0 342 28 511
105 224 102 457 345 552 576 65 157 80 243 80 434 0 145 -3 183 -22 260 -59
229 -153 390 -323 550 -179 169 -335 251 -583 306 -88 20 -358 17 -460 -5
-167 -36 -342 -117 -461 -213 -23 -18 -44 -33 -48 -33 -3 0 -6 68 -6 150 l0
150 -870 0 -870 0 0 -290z m1600 10 l0 -170 -720 0 -720 0 0 170 0 170 720 0
720 0 0 -170z m1035 -19 c389 -74 663 -335 739 -705 27 -130 14 -338 -24 -408
-6 -10 -10 -23 -10 -30 0 -7 -21 -54 -46 -105 -48 -97 -142 -217 -210 -267
-21 -17 -41 -33 -44 -36 -7 -9 -98 -61 -155 -88 -304 -149 -665 -110 -944 102
-258 195 -389 555 -312 856 31 123 117 290 195 381 76 88 147 145 260 205 103
55 148 71 261 94 117 24 169 24 290 1z"/>
<path d="M4104 2611 c-12 -5 -31 -22 -43 -37 -20 -25 -21 -37 -21 -245 l0
-219 -210 0 c-231 0 -245 -3 -294 -60 -46 -56 -23 -160 42 -190 14 -6 111 -10
242 -10 l220 0 0 -221 0 -221 34 -34 c30 -30 40 -34 89 -34 39 0 61 6 80 20
45 35 50 74 43 292 l-7 198 216 0 c182 0 223 3 252 17 91 43 79 197 -17 230
-22 8 -108 12 -237 12 l-202 1 -3 225 -3 225 -27 26 c-21 21 -38 28 -80 31
-29 1 -63 -1 -74 -6z"/>
</g>
</svg>
