<svg xmlns="http://www.w3.org/2000/svg" width="1000" height="1350" version="1.1">
<rect id="card_background" fill="#ccc" x="0" y="0" width="1000" height="1350" />
  <rect id="character_background" fill="#eee" x="20" y="20" width="960" height="1150" rx="8" />
  <text x="20" y="1225" font-family="serif" font-size="40px" fill="#dec2bf" stroke="#000000">Worthy of love NFT</text>
  <text x="20" y="1275" font-family="serif" font-size="40px" fill="#dec2bf" stroke="#000000">Architect Fady----</text>
  <text x="20" y="1325" font-family="serif" font-size="40px" fill="#dec2bf" stroke="#000000">Rarity class: 1</text>

<svg x="282" y="750" xmlns="http://www.w3.org/2000/svg" version="1.1" width="436px" height="220px" style="shape-rendering:geometricPrecision; text-rendering:geometricPrecision; image-rendering:optimizeQuality; fill-rule:evenodd; clip-rule:evenodd" xmlns:xlink="http://www.w3.org/1999/xlink">
<g><path style="opacity:0.841" fill="#452410" d="M 0.5,-0.5 C 145.167,-0.5 289.833,-0.5 434.5,-0.5C 434.5,0.166667 434.833,0.5 435.5,0.5C 435.5,1.16667 435.5,1.83333 435.5,2.5C 413.697,22.1319 393.863,43.4652 376,66.5C 344.188,112.44 327.688,163.44 326.5,219.5C 253.833,219.5 181.167,219.5 108.5,219.5C 107.149,154.926 85.9821,97.9257 45,48.5C 30.3272,32.6606 15.1605,17.3273 -0.5,2.5C -0.5,1.83333 -0.5,1.16667 -0.5,0.5C 0.166667,0.5 0.5,0.166667 0.5,-0.5 Z"/></g>
<g><path style="opacity:1" fill="#e5cec1" d="M 428.5,4.5 C 287.833,3.16667 147.167,3.16667 6.5,4.5C 5.95691,4.44001 5.62358,4.10667 5.5,3.5C 146.833,2.16667 288.167,2.16667 429.5,3.5C 429.376,4.10667 429.043,4.44001 428.5,4.5 Z"/></g>
<g><path style="opacity:1" fill="#e5cec1" d="M 6.5,4.5 C 147.167,3.16667 287.833,3.16667 428.5,4.5C 399.3,29.5133 375.133,58.5133 356,91.5C 335.809,128.267 325.309,167.6 324.5,209.5C 323.539,211.265 323.205,213.265 323.5,215.5C 252.833,215.5 182.167,215.5 111.5,215.5C 111.795,213.265 111.461,211.265 110.5,209.5C 108.439,147.797 87.606,93.4635 48,46.5C 34.6606,31.9941 20.8273,17.9941 6.5,4.5 Z"/></g>
<g><path style="opacity:1" fill="#e5cec1" d="M 110.5,209.5 C 111.461,211.265 111.795,213.265 111.5,215.5C 182.167,215.5 252.833,215.5 323.5,215.5C 323.205,213.265 323.539,211.265 324.5,209.5C 324.5,211.833 324.5,214.167 324.5,216.5C 253.167,216.5 181.833,216.5 110.5,216.5C 110.5,214.167 110.5,211.833 110.5,209.5 Z"/></g>
</svg>

<svg x="282" y="534" xmlns="http://www.w3.org/2000/svg" version="1.1" width="436px" height="220px" style="shape-rendering:geometricPrecision; text-rendering:geometricPrecision; image-rendering:optimizeQuality; fill-rule:evenodd; clip-rule:evenodd" xmlns:xlink="http://www.w3.org/1999/xlink">
<g><path style="opacity:0.879" fill="#45240f" d="M 0.5,-0.5 C 145.167,-0.5 289.833,-0.5 434.5,-0.5C 434.5,0.166667 434.833,0.5 435.5,0.5C 435.5,73.1667 435.5,145.833 435.5,218.5C 434.833,218.5 434.5,218.833 434.5,219.5C 289.833,219.5 145.167,219.5 0.5,219.5C 0.5,218.833 0.166667,218.5 -0.5,218.5C -0.5,145.833 -0.5,73.1667 -0.5,0.5C 0.166667,0.5 0.5,0.166667 0.5,-0.5 Z"/></g>
<g><path style="opacity:1" fill="#c3c6c2" d="M 108.5,3.5 C 144.711,29.4389 180.378,56.1056 215.5,83.5C 215.5,127.5 215.5,171.5 215.5,215.5C 144.833,215.5 74.1667,215.5 3.5,215.5C 3.5,144.833 3.5,74.1667 3.5,3.5C 38.5,3.5 73.5,3.5 108.5,3.5 Z"/></g>
<g><path style="opacity:1" fill="#c3c6c2" d="M 115.5,3.5 C 148.833,3.5 182.167,3.5 215.5,3.5C 215.831,28.6722 215.498,53.6722 214.5,78.5C 181.321,53.7429 148.321,28.7429 115.5,3.5 Z"/></g>
<g><path style="opacity:1" fill="#c3c6c2" d="M 214.5,78.5 C 215.498,53.6722 215.831,28.6722 215.5,3.5C 182.167,3.5 148.833,3.5 115.5,3.5C 148.427,2.50057 182.093,2.16723 216.5,2.5C 216.833,28.1753 216.5,53.842 215.5,79.5C 214.893,79.3764 214.56,79.0431 214.5,78.5 Z"/></g>
<g><path style="opacity:1" fill="#c3c6c2" d="M 222.5,4.5 C 246.994,3.50232 271.661,3.16899 296.5,3.5C 296.831,28.339 296.498,53.0056 295.5,77.5C 271.5,52.8333 247.167,28.5 222.5,4.5 Z"/></g>
<g><path style="opacity:1" fill="#c3c6c2" d="M 295.5,77.5 C 296.498,53.0056 296.831,28.339 296.5,3.5C 271.661,3.16899 246.994,3.50232 222.5,4.5C 221.957,4.44001 221.624,4.10667 221.5,3.5C 246.825,2.50023 272.158,2.1669 297.5,2.5C 297.833,27.8421 297.5,53.1754 296.5,78.5C 295.893,78.3764 295.56,78.0431 295.5,77.5 Z"/></g>
<g><path style="opacity:1" fill="#c3c6c2" d="M 219.5,82.5 C 219.169,56.9945 219.502,31.6612 220.5,6.5C 245.632,32.132 270.965,57.632 296.5,83C 297.749,83.7401 298.749,83.5735 299.5,82.5C 300.498,56.3386 300.831,30.0053 300.5,3.5C 344.167,3.5 387.833,3.5 431.5,3.5C 431.5,74.1667 431.5,144.833 431.5,215.5C 360.833,215.5 290.167,215.5 219.5,215.5C 219.5,171.167 219.5,126.833 219.5,82.5 Z"/></g>
<g><path style="opacity:1" fill="#c3c6c2" d="M 218.5,82.5 C 218.833,82.5 219.167,82.5 219.5,82.5C 219.5,126.833 219.5,171.167 219.5,215.5C 290.167,215.5 360.833,215.5 431.5,215.5C 431.5,144.833 431.5,74.1667 431.5,3.5C 387.833,3.5 344.167,3.5 300.5,3.5C 300.831,30.0053 300.498,56.3386 299.5,82.5C 299.5,55.8333 299.5,29.1667 299.5,2.5C 343.833,2.5 388.167,2.5 432.5,2.5C 432.5,73.8333 432.5,145.167 432.5,216.5C 361.167,216.5 289.833,216.5 218.5,216.5C 218.5,171.833 218.5,127.167 218.5,82.5 Z"/></g>
<g><path style="opacity:1" fill="#715848" d="M 220.5,6.5 C 219.502,31.6612 219.169,56.9945 219.5,82.5C 219.167,82.5 218.833,82.5 218.5,82.5C 218.167,56.8247 218.5,31.158 219.5,5.5C 220.107,5.62358 220.44,5.95691 220.5,6.5 Z"/></g>
<g><path style="opacity:1" fill="#492814" d="M 297.5,108.5 C 325.167,108.5 352.833,108.5 380.5,108.5C 380.667,125.503 380.5,142.503 380,159.5C 371.635,184.11 354.468,194.61 328.5,191C 312.569,186.069 302.402,175.569 298,159.5C 297.5,142.503 297.333,125.503 297.5,108.5 Z"/></g>
<g><path style="opacity:1" fill="#c3c6c2" d="M 377.5,153.5 C 377.5,139.5 377.5,125.5 377.5,111.5C 351.833,111.5 326.167,111.5 300.5,111.5C 300.5,125.5 300.5,139.5 300.5,153.5C 299.504,139.343 299.171,125.01 299.5,110.5C 325.833,110.5 352.167,110.5 378.5,110.5C 378.829,125.01 378.496,139.343 377.5,153.5 Z"/></g>
<g><path style="opacity:1" fill="#c3c6c2" d="M 377.5,153.5 C 376.12,167.764 369.12,178.264 356.5,185C 334.054,193.518 316.554,187.685 304,167.5C 301.925,163.03 300.758,158.364 300.5,153.5C 300.5,139.5 300.5,125.5 300.5,111.5C 326.167,111.5 351.833,111.5 377.5,111.5C 377.5,125.5 377.5,139.5 377.5,153.5 Z"/></g>
<g><path style="opacity:1" fill="#c3c6c2" d="M 108.5,3.5 C 73.5,3.5 38.5,3.5 3.5,3.5C 3.5,74.1667 3.5,144.833 3.5,215.5C 74.1667,215.5 144.833,215.5 215.5,215.5C 215.5,171.5 215.5,127.5 215.5,83.5C 216.499,127.664 216.832,171.997 216.5,216.5C 145.167,216.5 73.8333,216.5 2.5,216.5C 2.5,145.167 2.5,73.8333 2.5,2.5C 38.0039,2.16827 73.3373,2.50161 108.5,3.5 Z"/></g>
</svg>

<svg x="282" y="318" xmlns="http://www.w3.org/2000/svg" version="1.1" width="436px" height="220px" style="shape-rendering:geometricPrecision; text-rendering:geometricPrecision; image-rendering:optimizeQuality; fill-rule:evenodd; clip-rule:evenodd" xmlns:xlink="http://www.w3.org/1999/xlink">
<g><path style="opacity:0.836" fill="#44230e" d="M 71.5,-0.5 C 168.833,-0.5 266.167,-0.5 363.5,-0.5C 397.615,4.76993 420.449,23.7699 432,56.5C 433.36,61.5962 434.526,66.5962 435.5,71.5C 435.5,96.8333 435.5,122.167 435.5,147.5C 430.23,181.615 411.23,204.449 378.5,216C 373.404,217.36 368.404,218.526 363.5,219.5C 266.167,219.5 168.833,219.5 71.5,219.5C 37.3846,214.23 14.5513,195.23 3,162.5C 1.64036,157.404 0.473697,152.404 -0.5,147.5C -0.5,122.167 -0.5,96.8333 -0.5,71.5C 4.76993,37.3846 23.7699,14.5513 56.5,3C 61.5962,1.64036 66.5962,0.473697 71.5,-0.5 Z"/></g>
<g><path style="opacity:1" fill="#dec2bf" d="M 75.5,2.5 C 170.167,2.33334 264.834,2.5 359.5,3C 395.697,7.19664 419.197,26.6966 430,61.5C 430.83,66.143 431.497,70.8097 432,75.5C 432.667,98.1667 432.667,120.833 432,143.5C 428.54,175.618 412.04,198.118 382.5,211C 375.049,213.631 367.382,215.298 359.5,216C 264.833,216.667 170.167,216.667 75.5,216C 43.3965,212.559 20.8965,196.059 8,166.5C 5.36893,159.049 3.70227,151.382 3,143.5C 2.07887,118.138 2.41221,92.8046 4,67.5C 9.89327,38.2678 26.7266,18.1011 54.5,7C 61.5419,5.05477 68.5419,3.55477 75.5,2.5 Z"/></g>
</svg>

<svg x="349" y="102" xmlns="http://www.w3.org/2000/svg" version="1.1" width="301px" height="220px" style="shape-rendering:geometricPrecision; text-rendering:geometricPrecision; image-rendering:optimizeQuality; fill-rule:evenodd; clip-rule:evenodd" xmlns:xlink="http://www.w3.org/1999/xlink">
<g><path style="opacity:0.837" fill="#472713" d="M 176.5,-0.5 C 192.833,-0.5 209.167,-0.5 225.5,-0.5C 268.167,6.83333 293.167,31.8333 300.5,74.5C 300.5,79.8333 300.5,85.1667 300.5,90.5C 294.471,129.702 272.138,154.202 233.5,164C 223.865,165.078 214.199,165.745 204.5,166C 191.62,166.626 179.953,170.626 169.5,178C 162.13,186.126 159.63,195.626 162,206.5C 162.768,210.137 163.934,213.637 165.5,217C 165.257,217.902 164.923,218.735 164.5,219.5C 109.833,219.5 55.1667,219.5 0.5,219.5C 0.5,218.833 0.166667,218.5 -0.5,218.5C -0.5,212.833 -0.5,207.167 -0.5,201.5C 1.36613,161.711 11.5328,124.044 30,88.5C 62.8492,32.9731 111.682,3.30647 176.5,-0.5 Z"/></g>
<g><path style="opacity:1" fill="#ff5b93" d="M 160.5,214.5 C 108.336,215.499 56.0027,215.832 3.5,215.5C 3.5,211.167 3.5,206.833 3.5,202.5C 4.44462,149.823 20.9446,102.823 53,61.5C 83.4985,27.3338 121.665,8.16714 167.5,4C 188.5,3.33333 209.5,3.33333 230.5,4C 265.864,11.6972 287.698,33.1972 296,68.5C 300.17,110.259 283.337,139.759 245.5,157C 240.543,158.489 235.543,159.822 230.5,161C 214.957,160.99 199.624,162.656 184.5,166C 160.623,174.254 152.623,190.42 160.5,214.5 Z"/></g>
<g><path style="opacity:1" fill="#ff5b93" d="M 3.5,202.5 C 3.5,206.833 3.5,211.167 3.5,215.5C 56.0027,215.832 108.336,215.499 160.5,214.5C 161.043,214.56 161.376,214.893 161.5,215.5C 108.504,216.5 55.5042,216.833 2.5,216.5C 2.18054,211.637 2.51388,206.97 3.5,202.5 Z"/></g>
</svg>

<svg x="360" y="362" xmlns="http://www.w3.org/2000/svg" version="1.1" width="279px" height="168px" style="shape-rendering:geometricPrecision; text-rendering:geometricPrecision; image-rendering:optimizeQuality; fill-rule:evenodd; clip-rule:evenodd" xmlns:xlink="http://www.w3.org/1999/xlink">
<g><path style="opacity:0.863" fill="#604136" d="M 166.5,0.5 C 166.5,0.166667 166.5,-0.166667 166.5,-0.5C 185.167,-0.5 203.833,-0.5 222.5,-0.5C 214.833,0.166667 207.167,0.833333 199.5,1.5C 196.5,1.5 193.5,1.5 190.5,1.5C 182.684,0.507609 174.684,0.174275 166.5,0.5 Z"/></g>
<g><path style="opacity:1" fill="#f6f2d6" d="M 79.5,1.5 C 94.2205,-0.0612646 104.387,5.93874 110,19.5C 110.497,22.146 110.664,24.8127 110.5,27.5C 92.5,27.5 74.5,27.5 56.5,27.5C 57.862,13.1437 65.5286,4.47699 79.5,1.5 Z"/></g>
<g><path style="opacity:0.984" fill="#563623" d="M 55.5,0.5 C 55.5,0.166667 55.5,-0.166667 55.5,-0.5C 74.5,-0.5 93.5,-0.5 112.5,-0.5C 107.255,1.2923 101.588,2.12563 95.5,2C 106.273,7.03416 111.94,15.5342 112.5,27.5C 111.833,27.5 111.167,27.5 110.5,27.5C 110.664,24.8127 110.497,22.146 110,19.5C 104.387,5.93874 94.2205,-0.0612646 79.5,1.5C 71.6841,0.507609 63.6841,0.174275 55.5,0.5 Z"/></g>
<g><path style="opacity:0.924" fill="#472712" d="M 222.5,-0.5 C 222.833,-0.5 223.167,-0.5 223.5,-0.5C 218.255,1.2923 212.588,2.12563 206.5,2C 221.54,10.443 226.374,22.943 221,39.5C 213.101,54.364 200.935,59.5307 184.5,55C 170.088,48.012 164.255,36.512 167,20.5C 169.624,12.2086 174.791,6.04191 182.5,2C 176.984,1.82669 171.651,1.32669 166.5,0.5C 174.684,0.174275 182.684,0.507609 190.5,1.5C 176.464,4.53539 168.798,13.2021 167.5,27.5C 185.5,27.5 203.5,27.5 221.5,27.5C 220.351,13.6785 213.017,5.01186 199.5,1.5C 207.167,0.833333 214.833,0.166667 222.5,-0.5 Z"/></g>
<g><path style="opacity:1" fill="#b7c9de" d="M 190.5,1.5 C 193.5,1.5 196.5,1.5 199.5,1.5C 213.017,5.01186 220.351,13.6785 221.5,27.5C 203.5,27.5 185.5,27.5 167.5,27.5C 168.798,13.2021 176.464,4.53539 190.5,1.5 Z"/></g>
<g><path style="opacity:1" fill="#422817" d="M 167.5,28.5 C 185.5,28.5 203.5,28.5 221.5,28.5C 220.232,45.1011 211.232,54.1011 194.5,55.5C 178.488,53.4882 169.488,44.4882 167.5,28.5 Z"/></g>
<g><path style="opacity:0.999" fill="#452510" d="M 55.5,0.5 C 63.6841,0.174275 71.6841,0.507609 79.5,1.5C 65.5286,4.47699 57.862,13.1437 56.5,27.5C 74.5,27.5 92.5,27.5 110.5,27.5C 111.167,27.5 111.833,27.5 112.5,27.5C 112.121,42.3776 104.788,51.8776 90.5,56C 74.9415,58.4715 63.7748,52.6382 57,38.5C 52.6396,22.566 57.473,10.3993 71.5,2C 65.9842,1.82669 60.6509,1.32669 55.5,0.5 Z"/></g>
<g><path style="opacity:1" fill="#422817" d="M 56.5,28.5 C 74.5,28.5 92.5,28.5 110.5,28.5C 109.251,45.0826 100.251,54.0826 83.5,55.5C 67.486,53.486 58.486,44.486 56.5,28.5 Z"/></g>
<g><path style="opacity:0.26" fill="#42210c" d="M 221.5,55.5 C 240.326,54.503 259.326,54.1697 278.5,54.5C 278.5,55.5 278.5,56.5 278.5,57.5C 277.833,57.8333 277.167,58.1667 276.5,58.5C 276.5,57.5 276.5,56.5 276.5,55.5C 258.659,55.1699 240.992,55.5033 223.5,56.5C 223.167,56.5 222.833,56.5 222.5,56.5C 222.5,55.8333 222.167,55.5 221.5,55.5 Z"/></g>
<g><path style="opacity:0.251" fill="#4d2d19" d="M 0.5,54.5 C 19.4097,54.174 38.243,54.5073 57,55.5C 57.9854,74.6497 57.6521,93.6497 56,112.5C 37.6667,94.1667 19.3333,75.8333 1,57.5C 0.517215,56.552 0.350549,55.552 0.5,54.5 Z"/></g>
<g><path style="opacity:1" fill="#b7c9de" d="M 2.5,57.5 C 19.9921,56.5033 37.6588,56.1699 55.5,56.5C 55.6666,74.1698 55.4999,91.8365 55,109.5C 37.6319,91.9649 20.1319,74.6316 2.5,57.5 Z"/></g>
<g><path style="opacity:1" fill="#71b360" d="M 140.5,58.5 C 140.557,59.609 140.89,60.609 141.5,61.5C 140.504,77.6581 140.17,93.9915 140.5,110.5C 139.167,93.1667 139.167,75.8333 140.5,58.5 Z"/></g>
<g><path style="opacity:0.565" fill="#473114" d="M 140.5,58.5 C 140.833,58.5 141.167,58.5 141.5,58.5C 150.405,75.3096 159.072,92.3096 167.5,109.5C 166.833,109.5 166.167,109.5 165.5,109.5C 157.5,93.5 149.5,77.5 141.5,61.5C 140.89,60.609 140.557,59.609 140.5,58.5 Z"/></g>
<g><path style="opacity:1" fill="#81e27c" d="M 138.5,59.5 C 138.5,76.5 138.5,93.5 138.5,110.5C 129.833,110.5 121.167,110.5 112.5,110.5C 120.928,93.3096 129.595,76.3096 138.5,59.5 Z"/></g>
<g><path style="opacity:1" fill="#81e37c" d="M 141.5,61.5 C 149.5,77.5 157.5,93.5 165.5,109.5C 157.35,110.493 149.017,110.826 140.5,110.5C 140.17,93.9915 140.504,77.6581 141.5,61.5 Z"/></g>
<g><path style="opacity:0.704" fill="#473215" d="M 141.5,57.5 C 139.821,57.2852 138.821,57.9519 138.5,59.5C 129.595,76.3096 120.928,93.3096 112.5,110.5C 112.167,110.5 111.833,110.5 111.5,110.5C 120.384,91.7323 129.55,73.0657 139,54.5C 140.045,55.3734 140.878,56.3734 141.5,57.5 Z"/></g>
<g><path style="opacity:0.886" fill="#5e412e" d="M 221.5,55.5 C 222.167,55.5 222.5,55.8333 222.5,56.5C 222.167,74.1792 222.5,91.8459 223.5,109.5C 224.107,109.376 224.44,109.043 224.5,108.5C 241.298,91.2014 258.298,74.0348 275.5,57C 258.17,56.5001 240.837,56.3334 223.5,56.5C 240.992,55.5033 258.659,55.1699 276.5,55.5C 276.5,56.5 276.5,57.5 276.5,58.5C 258.84,76.9936 240.673,94.9936 222,112.5C 221.5,93.5029 221.333,74.5029 221.5,55.5 Z"/></g>
<g><path style="opacity:1" fill="#b7c9de" d="M 223.5,56.5 C 240.837,56.3334 258.17,56.5001 275.5,57C 258.298,74.0348 241.298,91.2014 224.5,108.5C 223.503,91.3414 223.17,74.008 223.5,56.5 Z"/></g>
<g><path style="opacity:1" fill="#b7c9de" d="M 222.5,56.5 C 222.833,56.5 223.167,56.5 223.5,56.5C 223.17,74.008 223.503,91.3414 224.5,108.5C 224.44,109.043 224.107,109.376 223.5,109.5C 222.5,91.8459 222.167,74.1792 222.5,56.5 Z"/></g>
<g><path style="opacity:0.264" fill="#42210b" d="M 111.5,110.5 C 111.833,110.5 112.167,110.5 112.5,110.5C 130.736,111.825 149.069,111.825 167.5,110.5C 158.525,111.832 149.191,112.498 139.5,112.5C 130.167,112.333 120.833,112.167 111.5,112C 110.262,111.31 110.262,110.81 111.5,110.5 Z"/></g>
<g><path style="opacity:0.937" fill="#4f4922" d="M 141.5,57.5 C 141.5,57.8333 141.5,58.1667 141.5,58.5C 141.167,58.5 140.833,58.5 140.5,58.5C 139.167,75.8333 139.167,93.1667 140.5,110.5C 149.017,110.826 157.35,110.493 165.5,109.5C 166.167,109.5 166.833,109.5 167.5,109.5C 167.5,109.833 167.5,110.167 167.5,110.5C 149.069,111.825 130.736,111.825 112.5,110.5C 121.167,110.5 129.833,110.5 138.5,110.5C 138.5,93.5 138.5,76.5 138.5,59.5C 138.821,57.9519 139.821,57.2852 141.5,57.5 Z"/></g>
<g><path style="opacity:0.718" fill="#42220c" d="M 154.5,166.5 C 154.5,165.833 154.5,165.167 154.5,164.5C 156.504,163.327 158.004,161.66 159,159.5C 159.5,152.842 159.666,146.175 159.5,139.5C 152.833,139.5 146.167,139.5 139.5,139.5C 139.167,139.5 138.833,139.5 138.5,139.5C 131.833,139.5 125.167,139.5 118.5,139.5C 118.334,145.842 118.5,152.175 119,158.5C 120.03,160.346 121.196,162.013 122.5,163.5C 122.5,164.167 122.5,164.833 122.5,165.5C 120.292,164.106 118.792,162.106 118,159.5C 117.5,152.842 117.334,146.175 117.5,139.5C 96.519,139.001 75.8523,136.501 55.5,132C 72.218,133.245 88.8846,135.245 105.5,138C 143.781,140.379 181.781,138.212 219.5,131.5C 220.833,131.667 222.167,131.833 223.5,132C 202.745,136.417 181.745,138.917 160.5,139.5C 160.666,146.841 160.5,154.174 160,161.5C 158.945,164.056 157.112,165.723 154.5,166.5 Z"/></g>
<g><path style="opacity:1" fill="#b7c9de" d="M 138.5,139.5 C 138.666,146.175 138.5,152.842 138,159.5C 136.321,163.517 133.321,165.517 129,165.5C 126.498,165.662 124.331,164.995 122.5,163.5C 121.196,162.013 120.03,160.346 119,158.5C 118.5,152.175 118.334,145.842 118.5,139.5C 125.167,139.5 131.833,139.5 138.5,139.5 Z"/></g>
<g><path style="opacity:1" fill="#513726" d="M 138.5,139.5 C 138.833,139.5 139.167,139.5 139.5,139.5C 139.334,145.842 139.5,152.175 140,158.5C 142.824,165.217 147.657,167.217 154.5,164.5C 154.5,165.167 154.5,165.833 154.5,166.5C 153.833,166.5 153.5,166.833 153.5,167.5C 151.167,167.5 148.833,167.5 146.5,167.5C 143.634,166.153 141.134,164.153 139,161.5C 137.506,164.314 135.34,166.314 132.5,167.5C 130.167,167.5 127.833,167.5 125.5,167.5C 124.71,166.599 123.71,165.932 122.5,165.5C 122.5,164.833 122.5,164.167 122.5,163.5C 124.331,164.995 126.498,165.662 129,165.5C 133.321,165.517 136.321,163.517 138,159.5C 138.5,152.842 138.666,146.175 138.5,139.5 Z"/></g>
<g><path style="opacity:1" fill="#b7c9de" d="M 139.5,139.5 C 146.167,139.5 152.833,139.5 159.5,139.5C 159.666,146.175 159.5,152.842 159,159.5C 158.004,161.66 156.504,163.327 154.5,164.5C 147.657,167.217 142.824,165.217 140,158.5C 139.5,152.175 139.334,145.842 139.5,139.5 Z"/></g>
</svg>

<svg x="500" y="696" xmlns="http://www.w3.org/2000/svg" version="1.1" width="247px" height="274px" style="shape-rendering:geometricPrecision; text-rendering:geometricPrecision; image-rendering:optimizeQuality; fill-rule:evenodd; clip-rule:evenodd" xmlns:xlink="http://www.w3.org/1999/xlink">
<g><path style="opacity:0.891" fill="#000000" d="M 200.5,-0.5 C 202.833,-0.5 205.167,-0.5 207.5,-0.5C 210.2,1.04602 212.033,3.37935 213,6.5C 223.5,40.4999 234.667,74.1665 246.5,107.5C 246.5,135.5 246.5,163.5 246.5,191.5C 238.833,238.5 211.5,265.833 164.5,273.5C 118.833,273.5 73.1667,273.5 27.5,273.5C 18.5,263.833 9.16667,254.5 -0.5,245.5C -0.5,235.833 -0.5,226.167 -0.5,216.5C 8.96503,207.536 18.2984,198.369 27.5,189C 65.8333,188.667 104.167,188.333 142.5,188C 152,185.167 158.167,179 161,169.5C 161.333,148.833 161.667,128.167 162,107.5C 173.403,73.9578 184.403,40.2911 195,6.5C 195.967,3.37935 197.8,1.04602 200.5,-0.5 Z"/></g>
<g><path style="opacity:1" fill="#a1ebdd" d="M 214.5,24.5 C 211.402,25.821 207.902,26.4877 204,26.5C 200.098,26.4877 196.598,25.821 193.5,24.5C 194.863,18.0505 196.696,11.7172 199,5.5C 202.333,1.5 205.667,1.5 209,5.5C 211.304,11.7172 213.137,18.0505 214.5,24.5 Z"/></g>
<g><path style="opacity:1" fill="#a1ebdd" d="M 193.5,24.5 C 196.598,25.821 200.098,26.4877 204,26.5C 207.902,26.4877 211.402,25.821 214.5,24.5C 215.404,25.209 215.737,26.209 215.5,27.5C 207.833,27.5 200.167,27.5 192.5,27.5C 192.263,26.209 192.596,25.209 193.5,24.5 Z"/></g>
<g><path style="opacity:1" fill="#f1decb" d="M 191.5,29.5 C 199.86,29.1688 208.193,29.5021 216.5,30.5C 225.265,56.2963 233.932,82.1297 242.5,108C 234.362,116.972 226.029,125.806 217.5,134.5C 208.5,135.833 199.5,135.833 190.5,134.5C 181.971,125.806 173.638,116.972 165.5,108C 174.273,81.8468 182.94,55.6801 191.5,29.5 Z"/></g>
<g><path style="opacity:1" fill="#219105" d="M 166.5,114.5 C 165.833,132.5 165.167,150.5 164.5,168.5C 164.167,150.155 164.5,131.821 165.5,113.5C 166.107,113.624 166.44,113.957 166.5,114.5 Z"/></g>
<g><path style="opacity:1" fill="#dec2bf" d="M 241.5,114.5 C 241.56,113.957 241.893,113.624 242.5,113.5C 243.829,139.664 243.829,165.664 242.5,191.5C 242.831,165.661 242.498,139.995 241.5,114.5 Z"/></g>
<g><path style="opacity:1" fill="#dec2bf" d="M 166.5,114.5 C 173.464,121.965 180.631,129.298 188,136.5C 188.667,152.5 188.667,168.5 188,184.5C 183.833,200.667 173.667,210.833 157.5,215C 132.5,215.667 107.5,215.667 82.5,215C 74.8333,207.333 67.1667,199.667 59.5,192C 87.5,191.667 115.5,191.333 143.5,191C 155.161,187.84 162.161,180.34 164.5,168.5C 165.167,150.5 165.833,132.5 166.5,114.5 Z"/></g>
<g><path style="opacity:1" fill="#dec2bf" d="M 241.5,114.5 C 242.498,139.995 242.831,165.661 242.5,191.5C 237.986,227.186 218.986,251.686 185.5,265C 178.4,267.657 171.066,269.157 163.5,269.5C 128.996,269.832 94.6626,269.498 60.5,268.5C 68.1457,261.521 75.479,254.188 82.5,246.5C 109.494,245.667 136.494,245.167 163.5,245C 191.154,239.68 208.988,223.513 217,196.5C 218.257,176.871 218.924,157.204 219,137.5C 226.702,129.965 234.202,122.298 241.5,114.5 Z"/></g>
<g><path style="opacity:1" fill="#211184" d="M 215.5,138.5 C 207.833,138.5 200.167,138.5 192.5,138.5C 192.829,152.344 192.496,166.01 191.5,179.5C 191.5,165.5 191.5,151.5 191.5,137.5C 199.684,137.174 207.684,137.508 215.5,138.5 Z"/></g>
<g><path style="opacity:1" fill="#ff5b93" d="M 215.5,138.5 C 215.936,157.88 215.436,177.213 214,196.5C 205.782,220.72 189.282,235.886 164.5,242C 137.835,242.5 111.169,242.667 84.5,242.5C 84.5,234.5 84.5,226.5 84.5,218.5C 108.836,218.667 133.169,218.5 157.5,218C 177.961,213.253 189.295,200.419 191.5,179.5C 192.496,166.01 192.829,152.344 192.5,138.5C 200.167,138.5 207.833,138.5 215.5,138.5 Z"/></g>
<g><path style="opacity:1" fill="#f1ddca" d="M 28.5,191.5 C 37.5246,191.168 46.5246,191.502 55.5,192.5C 63.5,201.167 71.8333,209.5 80.5,217.5C 81.6652,226.147 81.8319,234.814 81,243.5C 72.1667,252.333 63.3333,261.167 54.5,270C 45.8142,270.832 37.1475,270.665 28.5,269.5C 20.5,260.833 12.1667,252.5 3.5,244.5C 2.16667,235.5 2.16667,226.5 3.5,217.5C 12.5769,209.426 20.9103,200.759 28.5,191.5 Z"/></g>
<g><path style="opacity:1" fill="#522914" d="M 38.5,215.5 C 51.3126,215.478 57.4793,221.811 57,234.5C 50.4163,247.865 41.4163,249.865 30,240.5C 23.9582,229.125 26.7916,220.792 38.5,215.5 Z"/></g>
<g><path style="opacity:1" fill="#a1ebdd" d="M 39.5,218.5 C 50.2287,219.382 54.7287,225.049 53,235.5C 49.6772,241.908 44.5105,244.075 37.5,242C 30.9298,238.345 28.7632,232.845 31,225.5C 33.4639,222.519 36.2972,220.186 39.5,218.5 Z"/></g>
<g><path style="opacity:1" fill="#228e06" d="M 60.5,268.5 C 94.6626,269.498 128.996,269.832 163.5,269.5C 128.998,270.83 94.331,270.83 59.5,269.5C 59.6236,268.893 59.9569,268.56 60.5,268.5 Z"/></g>
</svg>
</svg>