<svg xmlns="http://www.w3.org/2000/svg" width="1000" height="1350" version="1.1">
<rect id="card_background" fill="#ccc" x="0" y="0" width="1000" height="1350" />
  <rect id="character_background" fill="#eee" x="20" y="20" width="960" height="1150" rx="8" />
  <text x="20" y="1225" font-family="serif" font-size="40px" fill="#faf4b9" stroke="#000000">Worthy of love NFT</text>
  <text x="20" y="1275" font-family="serif" font-size="40px" fill="#faf4b9" stroke="#000000">Worker Cuaro</text>
  <text x="20" y="1325" font-family="serif" font-size="40px" fill="#faf4b9" stroke="#000000">Rarity class: 2</text>

<svg x="282" y="750" xmlns="http://www.w3.org/2000/svg" version="1.1" width="436px" height="220px" style="shape-rendering:geometricPrecision; text-rendering:geometricPrecision; image-rendering:optimizeQuality; fill-rule:evenodd; clip-rule:evenodd" xmlns:xlink="http://www.w3.org/1999/xlink">
<g><path style="opacity:0.841" fill="#452410" d="M 0.5,-0.5 C 145.167,-0.5 289.833,-0.5 434.5,-0.5C 434.5,0.166667 434.833,0.5 435.5,0.5C 435.5,1.16667 435.5,1.83333 435.5,2.5C 413.697,22.1319 393.863,43.4652 376,66.5C 344.188,112.44 327.688,163.44 326.5,219.5C 253.833,219.5 181.167,219.5 108.5,219.5C 107.149,154.926 85.9821,97.9257 45,48.5C 30.3272,32.6606 15.1605,17.3273 -0.5,2.5C -0.5,1.83333 -0.5,1.16667 -0.5,0.5C 0.166667,0.5 0.5,0.166667 0.5,-0.5 Z"/></g>
<g><path style="opacity:1" fill="#b7c9de" d="M 428.5,4.5 C 287.833,3.16667 147.167,3.16667 6.5,4.5C 5.95691,4.44001 5.62358,4.10667 5.5,3.5C 146.833,2.16667 288.167,2.16667 429.5,3.5C 429.376,4.10667 429.043,4.44001 428.5,4.5 Z"/></g>
<g><path style="opacity:1" fill="#b7c9de" d="M 6.5,4.5 C 147.167,3.16667 287.833,3.16667 428.5,4.5C 399.3,29.5133 375.133,58.5133 356,91.5C 335.809,128.267 325.309,167.6 324.5,209.5C 323.539,211.265 323.205,213.265 323.5,215.5C 252.833,215.5 182.167,215.5 111.5,215.5C 111.795,213.265 111.461,211.265 110.5,209.5C 108.439,147.797 87.606,93.4635 48,46.5C 34.6606,31.9941 20.8273,17.9941 6.5,4.5 Z"/></g>
<g><path style="opacity:1" fill="#b7c9de" d="M 110.5,209.5 C 111.461,211.265 111.795,213.265 111.5,215.5C 182.167,215.5 252.833,215.5 323.5,215.5C 323.205,213.265 323.539,211.265 324.5,209.5C 324.5,211.833 324.5,214.167 324.5,216.5C 253.167,216.5 181.833,216.5 110.5,216.5C 110.5,214.167 110.5,211.833 110.5,209.5 Z"/></g>
</svg>

<svg x="336" y="534" xmlns="http://www.w3.org/2000/svg" version="1.1" width="328px" height="220px" style="shape-rendering:geometricPrecision; text-rendering:geometricPrecision; image-rendering:optimizeQuality; fill-rule:evenodd; clip-rule:evenodd" xmlns:xlink="http://www.w3.org/1999/xlink">
<g><path style="opacity:0.906" fill="#482814" d="M 0.5,-0.5 C 109.167,-0.5 217.833,-0.5 326.5,-0.5C 326.5,0.166667 326.833,0.5 327.5,0.5C 327.5,73.1667 327.5,145.833 327.5,218.5C 326.833,218.5 326.5,218.833 326.5,219.5C 217.833,219.5 109.167,219.5 0.5,219.5C 0.5,218.833 0.166667,218.5 -0.5,218.5C -0.5,145.833 -0.5,73.1667 -0.5,0.5C 0.166667,0.5 0.5,0.166667 0.5,-0.5 Z"/></g>
<g><path style="opacity:1" fill="#ff5b93" d="M 84.5,2.5 C 136.998,1.33492 189.665,1.16825 242.5,2C 216.288,36.923 189.955,71.7563 163.5,106.5C 137.146,71.765 110.813,37.0983 84.5,2.5 Z"/></g>
<g><path style="opacity:1" fill="#ff5b93" d="M 4.5,3.5 C 29.9967,2.33659 55.6634,2.16992 81.5,3C 108.698,38.5651 135.532,74.3984 162,110.5C 162.667,144.5 162.667,178.5 162,212.5C 109.637,142.649 57.1366,72.9827 4.5,3.5 Z"/></g>
<g><path style="opacity:1" fill="#ff5b93" d="M 245.5,2.5 C 271.169,2.33336 296.835,2.50003 322.5,3C 270,72.8333 217.5,142.667 165,212.5C 164.333,178.5 164.333,144.5 165,110.5C 191.665,74.3404 218.499,38.3404 245.5,2.5 Z"/></g>
<g><path style="opacity:1" fill="#ff5b93" d="M 2.5,6.5 C 55.3033,76.1493 107.97,145.983 160.5,216C 107.929,216.831 55.4294,216.664 3,215.5C 2.5,145.834 2.33334,76.1675 2.5,6.5 Z"/></g>
<g><path style="opacity:1" fill="#ff5b93" d="M 323.5,6.5 C 324.665,75.9988 324.832,145.665 324,215.5C 271.571,216.664 219.071,216.831 166.5,216C 219.05,146.29 271.383,76.4563 323.5,6.5 Z"/></g>
</svg>

<svg x="282" y="318" xmlns="http://www.w3.org/2000/svg" version="1.1" width="436px" height="220px" style="shape-rendering:geometricPrecision; text-rendering:geometricPrecision; image-rendering:optimizeQuality; fill-rule:evenodd; clip-rule:evenodd" xmlns:xlink="http://www.w3.org/1999/xlink">
<g><path style="opacity:0.837" fill="#452410" d="M 183.5,-0.5 C 206.167,-0.5 228.833,-0.5 251.5,-0.5C 284.877,7.41554 301.377,28.7489 301,63.5C 306.167,87.3333 320.667,101.833 344.5,107C 358.5,107.333 372.5,107.667 386.5,108C 414.012,113.013 430.346,129.179 435.5,156.5C 435.5,161.167 435.5,165.833 435.5,170.5C 430.167,197.833 413.833,214.167 386.5,219.5C 273.833,219.5 161.167,219.5 48.5,219.5C 21.1667,214.167 4.83333,197.833 -0.5,170.5C -0.5,165.833 -0.5,161.167 -0.5,156.5C 4.65437,129.179 20.9877,113.013 48.5,108C 62.5,107.667 76.5,107.333 90.5,107C 114.333,101.833 128.833,87.3333 134,63.5C 133.623,28.7489 150.123,7.41554 183.5,-0.5 Z"/></g>
<g><path style="opacity:1" fill="#ffab5d" d="M 184.5,2.5 C 206.503,2.33337 228.503,2.50004 250.5,3C 283.207,10.7379 299.041,31.5712 298,65.5C 303.522,89.6883 318.355,104.522 342.5,110C 356.833,110.333 371.167,110.667 385.5,111C 414.179,116.883 429.512,134.383 431.5,163.5C 429.512,192.617 414.179,210.117 385.5,216C 273.5,216.667 161.5,216.667 49.5,216C 15.8355,208.193 0.668874,187.026 4,152.5C 10.4572,129.178 25.6239,115.344 49.5,111C 63.5,110.667 77.5,110.333 91.5,110C 116.215,104.951 131.382,90.1181 137,65.5C 136.157,31.5532 151.991,10.5532 184.5,2.5 Z"/></g>
</svg>

<svg x="336" y="102" xmlns="http://www.w3.org/2000/svg" version="1.1" width="328px" height="220px" style="shape-rendering:geometricPrecision; text-rendering:geometricPrecision; image-rendering:optimizeQuality; fill-rule:evenodd; clip-rule:evenodd" xmlns:xlink="http://www.w3.org/1999/xlink">
<g><path style="opacity:0.844" fill="#462612" d="M 81.5,-0.5 C 82.1667,-0.5 82.8333,-0.5 83.5,-0.5C 100.62,49.3607 117.454,99.3607 134,149.5C 134.171,99.4293 134.671,49.4293 135.5,-0.5C 136.167,-0.5 136.833,-0.5 137.5,-0.5C 146.269,49.1111 154.935,98.7777 163.5,148.5C 172.065,98.7777 180.731,49.1111 189.5,-0.5C 190.167,-0.5 190.833,-0.5 191.5,-0.5C 192.329,49.4293 192.829,99.4293 193,149.5C 209.546,99.3607 226.38,49.3607 243.5,-0.5C 244.167,-0.5 244.833,-0.5 245.5,-0.5C 245.982,0.416349 246.315,1.41635 246.5,2.5C 237.89,52.1597 229.723,101.826 222,151.5C 247.041,109.917 272.208,68.4168 297.5,27C 300.091,26.6992 300.925,27.8659 300,30.5C 283.045,71.7194 266.712,113.053 251,154.5C 275.5,130 300,105.5 324.5,81C 325.577,80.5304 326.577,80.6971 327.5,81.5C 327.5,82.5 327.5,83.5 327.5,84.5C 299.93,129.298 272.597,174.298 245.5,219.5C 190.833,219.5 136.167,219.5 81.5,219.5C 54.4034,174.298 27.0701,129.298 -0.5,84.5C -0.5,83.5 -0.5,82.5 -0.5,81.5C 0.423175,80.6971 1.42317,80.5304 2.5,81C 27,105.5 51.5,130 76,154.5C 60.2883,113.053 43.955,71.7194 27,30.5C 26.0752,27.8659 26.9085,26.6992 29.5,27C 54.7923,68.4168 79.959,109.917 105,151.5C 97.2768,101.826 89.1101,52.1597 80.5,2.5C 80.685,1.41635 81.0183,0.416349 81.5,-0.5 Z"/></g>
<g><path style="opacity:1" fill="#e5cec1" d="M 139.5,26.5 C 138.833,72.1667 138.167,117.833 137.5,163.5C 137.333,115.832 137.5,68.1655 138,20.5C 138.813,22.4357 139.313,24.4357 139.5,26.5 Z"/></g>
<g><path style="opacity:1" fill="#e5cec1" d="M 189.5,163.5 C 188.833,117.833 188.167,72.1667 187.5,26.5C 187.687,24.4357 188.187,22.4357 189,20.5C 189.5,68.1655 189.667,115.832 189.5,163.5 Z"/></g>
<g><path style="opacity:1" fill="#e5cec1" d="M 137.5,163.5 C 138.167,117.833 138.833,72.1667 139.5,26.5C 146.34,70.54 153.507,114.54 161,158.5C 162.667,166.5 164.333,166.5 166,158.5C 173.493,114.54 180.66,70.54 187.5,26.5C 188.167,72.1667 188.833,117.833 189.5,163.5C 190.189,164.774 191.023,164.774 192,163.5C 207.667,116.5 223.333,69.5 239,22.5C 231.894,67.1348 224.561,111.801 217,156.5C 216.182,159.227 216.348,161.894 217.5,164.5C 241.739,126.369 265.239,87.702 288,48.5C 288.167,49 288.333,49.5 288.5,50C 272.799,87.9431 257.799,126.11 243.5,164.5C 244.552,164.649 245.552,164.483 246.5,164C 269.694,140.47 293.027,117.47 316.5,95C 292.167,135.333 267.833,175.667 243.5,216C 190.167,216.667 136.833,216.667 83.5,216C 59.4446,176.721 35.7779,137.221 12.5,97.5C 12.5,96.8333 12.8333,96.5 13.5,96.5C 35.6317,119.132 57.965,141.632 80.5,164C 81.448,164.483 82.448,164.649 83.5,164.5C 69.2006,126.11 54.2006,87.9431 38.5,50C 61.6455,86.2964 84.4788,123.796 107,162.5C 107.689,163.357 108.522,164.023 109.5,164.5C 110.652,161.894 110.818,159.227 110,156.5C 102.439,111.801 95.1056,67.1348 88,22.5C 103.667,69.5 119.333,116.5 135,163.5C 135.977,164.774 136.811,164.774 137.5,163.5 Z"/></g>
<g><path style="opacity:1" fill="#e5cec1" d="M 13.5,96.5 C 12.8333,96.5 12.5,96.8333 12.5,97.5C 10.9302,96.1252 10.0969,94.4585 10,92.5C 11.3756,93.7051 12.5423,95.0384 13.5,96.5 Z"/></g>
</svg>

<svg x="360" y="376" xmlns="http://www.w3.org/2000/svg" version="1.1" width="279px" height="154px" style="shape-rendering:geometricPrecision; text-rendering:geometricPrecision; image-rendering:optimizeQuality; fill-rule:evenodd; clip-rule:evenodd" xmlns:xlink="http://www.w3.org/1999/xlink">
<g><path style="opacity:0.516" fill="#44230e" d="M 71.5,-0.5 C 79.8333,-0.5 88.1667,-0.5 96.5,-0.5C 109.644,4.78508 114.644,14.4518 111.5,28.5C 112.546,16.077 107.546,7.24368 96.5,2C 95.1667,1.33333 93.8333,1.33333 92.5,2C 95.1059,3.93842 96.9392,6.43842 98,9.5C 98.4998,20.495 98.6665,31.495 98.5,42.5C 97.7109,42.2172 97.0442,41.7172 96.5,41C 97.4839,32.2511 97.8172,23.4178 97.5,14.5C 88.5,14.5 79.5,14.5 70.5,14.5C 70.5,23.8333 70.5,33.1667 70.5,42.5C 70.5,42.8333 70.5,43.1667 70.5,43.5C 70.1667,43.5 69.8333,43.5 69.5,43.5C 69.3335,31.8286 69.5001,20.1619 70,8.5C 70.786,5.41727 72.6193,3.2506 75.5,2C 72.3154,1.61206 69.3154,2.27872 66.5,4C 60.4463,8.27366 57.1129,14.107 56.5,21.5C 55.1341,15.8656 56.4674,10.8656 60.5,6.5C 63.7571,3.38003 67.4238,1.0467 71.5,-0.5 Z"/></g>
<g><path style="opacity:1" fill="#e5cec1" d="M 80.5,0.5 C 90.106,-0.214509 95.4393,4.11882 96.5,13.5C 87.8333,13.5 79.1667,13.5 70.5,13.5C 71.5541,7.44223 74.8874,3.1089 80.5,0.5 Z"/></g>
<g><path style="opacity:0.68" fill="#472813" d="M 181.5,-0.5 C 190.167,-0.5 198.833,-0.5 207.5,-0.5C 220.11,5.04869 225.11,14.7154 222.5,28.5C 222.415,21.3015 220.581,14.6348 217,8.5C 213.395,4.27956 208.895,2.1129 203.5,2C 206.467,4.10046 208.3,6.93379 209,10.5C 209.667,22.1667 209.667,33.8333 209,45.5C 206.916,52.7464 202.083,56.4131 194.5,56.5C 186.646,56.1557 181.813,52.1557 180,44.5C 179.333,33.5 179.333,22.5 180,11.5C 180.936,7.79261 182.769,4.62595 185.5,2C 180.609,2.02563 176.442,3.85896 173,7.5C 169.91,11.682 167.91,16.3487 167,21.5C 166.581,10.6652 171.414,3.33187 181.5,-0.5 Z"/></g>
<g><path style="opacity:1" fill="#e5cec1" d="M 191.5,0.5 C 200.769,0.120166 206.103,4.4535 207.5,13.5C 198.833,13.5 190.167,13.5 181.5,13.5C 181.884,6.7946 185.217,2.46126 191.5,0.5 Z"/></g>
<g><path style="opacity:1" fill="#432a18" d="M 98.5,42.5 C 96.7952,53.3574 90.4619,57.8574 79.5,56C 73.4089,53.961 70.0756,49.7943 69.5,43.5C 69.8333,43.5 70.1667,43.5 70.5,43.5C 74.415,54.75 81.7483,57.5833 92.5,52C 95.4887,49.517 96.8221,46.3504 96.5,42.5C 87.8333,42.5 79.1667,42.5 70.5,42.5C 70.5,33.1667 70.5,23.8333 70.5,14.5C 79.5,14.5 88.5,14.5 97.5,14.5C 97.8172,23.4178 97.4839,32.2511 96.5,41C 97.0442,41.7172 97.7109,42.2172 98.5,42.5 Z"/></g>
<g><path style="opacity:1" fill="#422817" d="M 181.5,14.5 C 190.167,14.5 198.833,14.5 207.5,14.5C 207.5,23.5 207.5,32.5 207.5,41.5C 198.833,41.5 190.167,41.5 181.5,41.5C 181.5,32.5 181.5,23.5 181.5,14.5 Z"/></g>
<g><path style="opacity:1" fill="#e5cec1" d="M 70.5,42.5 C 79.1667,42.5 87.8333,42.5 96.5,42.5C 96.8221,46.3504 95.4887,49.517 92.5,52C 81.7483,57.5833 74.415,54.75 70.5,43.5C 70.5,43.1667 70.5,42.8333 70.5,42.5 Z"/></g>
<g><path style="opacity:1" fill="#e5cec1" d="M 181.5,42.5 C 190.167,42.5 198.833,42.5 207.5,42.5C 207.029,50.6361 202.696,54.6361 194.5,54.5C 186.96,53.9593 182.626,49.9593 181.5,42.5 Z"/></g>
<g><path style="opacity:0.745" fill="#42210b" d="M 110.5,54.5 C 129.5,54.5 148.5,54.5 167.5,54.5C 167.5,73.5 167.5,92.5 167.5,111.5C 148.5,111.5 129.5,111.5 110.5,111.5C 110.5,92.5 110.5,73.5 110.5,54.5 Z"/></g>
<g><path style="opacity:1" fill="#618243" d="M 166.5,56.5 C 148.5,56.5 130.5,56.5 112.5,56.5C 112.5,74.5 112.5,92.5 112.5,110.5C 111.503,92.3409 111.17,74.0076 111.5,55.5C 130.008,55.1698 148.341,55.5032 166.5,56.5 Z"/></g>
<g><path style="opacity:1" fill="#e5cec1" d="M 166.5,56.5 C 166.5,74.5 166.5,92.5 166.5,110.5C 148.5,110.5 130.5,110.5 112.5,110.5C 112.5,92.5 112.5,74.5 112.5,56.5C 130.5,56.5 148.5,56.5 166.5,56.5 Z"/></g>
<g><path style="opacity:0.98" fill="#4d2d19" d="M -0.5,86.5 C -0.5,84.5 -0.5,82.5 -0.5,80.5C 2.08186,67.0799 10.0819,58.5799 23.5,55C 34.5,54.3333 45.5,54.3333 56.5,55C 57.4927,73.757 57.826,92.5903 57.5,111.5C 44.1065,111.925 30.7731,111.425 17.5,110C 7.49653,105.129 1.49653,97.2955 -0.5,86.5 Z"/></g>
<g><path style="opacity:1" fill="#fafaf9" d="M 55.5,56.5 C 55.5,60.5 55.5,64.5 55.5,68.5C 45.3194,68.1726 35.3194,68.506 25.5,69.5C 15.741,72.35 12.241,78.6833 15,88.5C 16.5,92.6667 19.3333,95.5 23.5,97C 33.828,97.4998 44.1613,97.6665 54.5,97.5C 55.4849,101.634 55.8182,105.968 55.5,110.5C 44.495,110.667 33.495,110.5 22.5,110C 6.22985,104.709 -0.603483,93.5423 2,76.5C 6.03875,64.1288 14.5387,57.2955 27.5,56C 37.0092,55.1757 46.3425,55.3424 55.5,56.5 Z"/></g>
<g><path style="opacity:1" fill="#e5cec1" d="M 55.5,68.5 C 55.5,69.1667 55.5,69.8333 55.5,70.5C 45.5,70.5 35.5,70.5 25.5,70.5C 25.5,70.1667 25.5,69.8333 25.5,69.5C 35.3194,68.506 45.3194,68.1726 55.5,68.5 Z"/></g>
<g><path style="opacity:0.47" fill="#583926" d="M 278.5,77.5 C 278.5,81.5 278.5,85.5 278.5,89.5C 275.608,98.9026 269.608,105.736 260.5,110C 247.574,111.443 234.574,111.943 221.5,111.5C 221.5,92.5 221.5,73.5 221.5,54.5C 232.505,54.3335 243.505,54.5002 254.5,55C 267.242,57.5787 275.242,65.0787 278.5,77.5 Z"/></g>
<g><path style="opacity:1" fill="#755c4b" d="M 258.5,72.5 C 260.997,73.1293 262.33,74.796 262.5,77.5C 260.937,76.0552 259.604,74.3885 258.5,72.5 Z"/></g>
<g><path style="opacity:1" fill="#e5cec1" d="M 222.5,70.5 C 233.172,70.3335 243.839,70.5002 254.5,71C 255.745,71.7914 257.078,72.2914 258.5,72.5C 259.604,74.3885 260.937,76.0552 262.5,77.5C 262.723,79.3417 263.057,81.175 263.5,83C 262.836,86.8154 261.503,90.3154 259.5,93.5C 257.973,93.427 256.973,94.0937 256.5,95.5C 246.201,96.5937 235.867,96.7603 225.5,96C 231.167,92.1667 236.833,88.3333 242.5,84.5C 243.521,83.9984 243.688,83.3317 243,82.5C 236.654,86.6964 230.487,91.0297 224.5,95.5C 222.532,87.5671 221.865,79.2337 222.5,70.5 Z"/></g>
<g><path style="opacity:1" fill="#e5cec1" d="M 222.5,68.5 C 232.506,68.3335 242.506,68.5002 252.5,69C 255.025,69.4238 257.025,70.5905 258.5,72.5C 257.078,72.2914 255.745,71.7914 254.5,71C 243.839,70.5002 233.172,70.3335 222.5,70.5C 222.5,69.8333 222.5,69.1667 222.5,68.5 Z"/></g>
<g><path style="opacity:1" fill="#fcfcfb" d="M 223.5,110.5 C 223.5,106.5 223.5,102.5 223.5,98.5C 232.682,98.8266 241.682,98.4933 250.5,97.5C 252.898,97.7406 254.898,97.0739 256.5,95.5C 258.027,95.573 259.027,94.9063 259.5,93.5C 264.047,89.9164 265.547,85.2497 264,79.5C 263.722,78.5842 263.222,77.9175 262.5,77.5C 262.33,74.796 260.997,73.1293 258.5,72.5C 257.025,70.5905 255.025,69.4238 252.5,69C 242.506,68.5002 232.506,68.3335 222.5,68.5C 222.5,64.5 222.5,60.5 222.5,56.5C 233.505,56.3335 244.505,56.5002 255.5,57C 268.806,60.7352 276.14,69.5685 277.5,83.5C 276.173,97.3265 268.84,106.16 255.5,110C 244.839,110.5 234.172,110.667 223.5,110.5 Z"/></g>
<g><path style="opacity:1" fill="#765d4c" d="M 262.5,77.5 C 263.222,77.9175 263.722,78.5842 264,79.5C 265.547,85.2497 264.047,89.9164 259.5,93.5C 261.503,90.3154 262.836,86.8154 263.5,83C 263.057,81.175 262.723,79.3417 262.5,77.5 Z"/></g>
<g><path style="opacity:1" fill="#694f3d" d="M 259.5,93.5 C 259.027,94.9063 258.027,95.573 256.5,95.5C 256.973,94.0937 257.973,93.427 259.5,93.5 Z"/></g>
<g><path style="opacity:1" fill="#725848" d="M 55.5,56.5 C 56.1663,62.9914 56.4996,69.6581 56.5,76.5C 56.4628,83.7365 55.7962,90.7365 54.5,97.5C 44.1613,97.6665 33.828,97.4998 23.5,97C 19.3333,95.5 16.5,92.6667 15,88.5C 12.241,78.6833 15.741,72.35 25.5,69.5C 25.5,69.8333 25.5,70.1667 25.5,70.5C 15.2667,74.6144 12.7667,81.6144 18,91.5C 19.7309,93.6166 21.8976,95.1166 24.5,96C 34.1667,96.6667 43.8333,96.6667 53.5,96C 47.8333,92.3333 42.1667,88.6667 36.5,85C 35.3044,84.3457 35.3044,83.8457 36.5,83.5C 42.8014,87.3031 48.968,91.3031 55,95.5C 55.4997,87.1733 55.6664,78.84 55.5,70.5C 55.5,69.8333 55.5,69.1667 55.5,68.5C 55.5,64.5 55.5,60.5 55.5,56.5 Z"/></g>
<g><path style="opacity:1" fill="#e5cec1" d="M 25.5,70.5 C 35.5,70.5 45.5,70.5 55.5,70.5C 55.6664,78.84 55.4997,87.1733 55,95.5C 48.968,91.3031 42.8014,87.3031 36.5,83.5C 35.3044,83.8457 35.3044,84.3457 36.5,85C 42.1667,88.6667 47.8333,92.3333 53.5,96C 43.8333,96.6667 34.1667,96.6667 24.5,96C 21.8976,95.1166 19.7309,93.6166 18,91.5C 12.7667,81.6144 15.2667,74.6144 25.5,70.5 Z"/></g>
<g><path style="opacity:1" fill="#705746" d="M 256.5,95.5 C 254.898,97.0739 252.898,97.7406 250.5,97.5C 241.833,97.5 233.167,97.5 224.5,97.5C 224.5,96.8333 224.5,96.1667 224.5,95.5C 230.487,91.0297 236.654,86.6964 243,82.5C 243.688,83.3317 243.521,83.9984 242.5,84.5C 236.833,88.3333 231.167,92.1667 225.5,96C 235.867,96.7603 246.201,96.5937 256.5,95.5 Z"/></g>
<g><path style="opacity:1" fill="#e5cec1" d="M 224.5,97.5 C 233.167,97.5 241.833,97.5 250.5,97.5C 241.682,98.4933 232.682,98.8266 223.5,98.5C 223.5,102.5 223.5,106.5 223.5,110.5C 222.837,108.527 222.504,106.361 222.5,104C 222.533,101.39 223.2,99.223 224.5,97.5 Z"/></g>
<g><path style="opacity:0.266" fill="#482a17" d="M 145.5,153.5 C 143.833,153.5 142.167,153.5 140.5,153.5C 141.833,152.833 143.167,152.167 144.5,151.5C 158.357,148.498 165.69,139.832 166.5,125.5C 148.5,124.167 130.5,124.167 112.5,125.5C 113.016,140.011 120.349,148.677 134.5,151.5C 135.5,152.167 136.5,152.833 137.5,153.5C 136.167,153.5 134.833,153.5 133.5,153.5C 118.471,149.438 110.805,139.438 110.5,123.5C 129.5,123.5 148.5,123.5 167.5,123.5C 167.904,139.414 160.571,149.414 145.5,153.5 Z"/></g>
<g><path style="opacity:0.937" fill="#594639" d="M 112.5,125.5 C 130.5,124.167 148.5,124.167 166.5,125.5C 157.5,125.5 148.5,125.5 139.5,125.5C 139.5,134.167 139.5,142.833 139.5,151.5C 141.167,151.5 142.833,151.5 144.5,151.5C 143.167,152.167 141.833,152.833 140.5,153.5C 139.5,153.5 138.5,153.5 137.5,153.5C 136.5,152.833 135.5,152.167 134.5,151.5C 135.833,151.5 137.167,151.5 138.5,151.5C 138.5,142.833 138.5,134.167 138.5,125.5C 129.833,125.5 121.167,125.5 112.5,125.5 Z"/></g>
<g><path style="opacity:1" fill="#b1cfe3" d="M 112.5,125.5 C 121.167,125.5 129.833,125.5 138.5,125.5C 138.5,134.167 138.5,142.833 138.5,151.5C 137.167,151.5 135.833,151.5 134.5,151.5C 120.349,148.677 113.016,140.011 112.5,125.5 Z"/></g>
<g><path style="opacity:1" fill="#e5cec1" d="M 166.5,125.5 C 165.69,139.832 158.357,148.498 144.5,151.5C 142.833,151.5 141.167,151.5 139.5,151.5C 139.5,142.833 139.5,134.167 139.5,125.5C 148.5,125.5 157.5,125.5 166.5,125.5 Z"/></g>
</svg>

<svg x="500" y="777" xmlns="http://www.w3.org/2000/svg" version="1.1" width="193px" height="193px" style="shape-rendering:geometricPrecision; text-rendering:geometricPrecision; image-rendering:optimizeQuality; fill-rule:evenodd; clip-rule:evenodd" xmlns:xlink="http://www.w3.org/1999/xlink">
<g><path style="opacity:0.901" fill="#422210" d="M 88.5,-0.5 C 89.8333,-0.5 91.1667,-0.5 92.5,-0.5C 95.0897,1.00127 96.423,3.33461 96.5,6.5C 93.7081,16.663 92.8748,26.9964 94,37.5C 95.091,50.5826 101.924,58.7492 114.5,62C 131.5,62.3333 148.5,62.6667 165.5,63C 180.142,68.761 186.808,79.5944 185.5,95.5C 185.468,99.5517 185.135,103.552 184.5,107.5C 187.917,108.617 190.584,110.617 192.5,113.5C 192.5,120.167 192.5,126.833 192.5,133.5C 191.146,135.696 189.146,137.196 186.5,138C 177.173,138.5 167.839,138.666 158.5,138.5C 158.8,146.223 158.467,153.89 157.5,161.5C 164.883,164.263 167.549,169.597 165.5,177.5C 165.333,180.833 165.167,184.167 165,187.5C 163.648,189.749 161.815,191.416 159.5,192.5C 143.833,192.5 128.167,192.5 112.5,192.5C 106.006,188.196 99.3396,184.03 92.5,180C 78.504,179.5 64.504,179.333 50.5,179.5C 50.7693,183.931 50.436,188.265 49.5,192.5C 34.8333,192.5 20.1667,192.5 5.5,192.5C 3.27224,191.623 1.27224,190.29 -0.5,188.5C -0.5,180.833 -0.5,173.167 -0.5,165.5C 1.46052,163.688 3.79385,162.688 6.5,162.5C 5.39721,150.867 5.23054,139.2 6,127.5C 7.69077,113.401 10.0241,99.401 13,85.5C 13.4988,81.5138 13.6655,77.5138 13.5,73.5C 7.28173,73.3951 2.61506,70.7284 -0.5,65.5C -0.5,62.5 -0.5,59.5 -0.5,56.5C 1.62304,54.0787 3.95637,53.9121 6.5,56C 10.2162,60.0482 13.5496,64.3815 16.5,69C 22.1569,69.4994 27.8236,69.6661 33.5,69.5C 35.341,56.7968 37.5077,44.1301 40,31.5C 40.4988,27.5138 40.6655,23.5138 40.5,19.5C 29.8254,18.6645 25.3254,12.9979 27,2.5C 27.7387,1.42575 28.7387,0.759083 30,0.5C 32.8792,1.37576 35.2125,3.04243 37,5.5C 39.2902,8.57989 41.4569,11.7466 43.5,15C 56.8292,15.4999 70.1625,15.6666 83.5,15.5C 84.0804,11.8581 84.5804,8.19139 85,4.5C 85.2572,2.09347 86.4238,0.426808 88.5,-0.5 Z"/></g>
<g><path style="opacity:1" fill="#a1ebdd" d="M 88.5,3.5 C 91.2605,2.91465 92.9272,3.91465 93.5,6.5C 91.9741,9.65382 91.3075,12.9872 91.5,16.5C 90.1667,16.5 88.8333,16.5 87.5,16.5C 87.3718,12.1186 87.7051,7.78529 88.5,3.5 Z"/></g>
<g><path style="opacity:1" fill="#a1ebdd" d="M 29.5,4.5 C 31.371,4.85883 32.871,5.85883 34,7.5C 42.0872,17.3497 41.0872,18.683 31,11.5C 29.7978,9.32253 29.2978,6.9892 29.5,4.5 Z"/></g>
<g><path style="opacity:1" fill="#258906" d="M 90.5,19.5 C 75.1667,19.5 59.8333,19.5 44.5,19.5C 44.7947,21.7354 44.4614,23.7354 43.5,25.5C 43.5,23.1667 43.5,20.8333 43.5,18.5C 59.3422,18.1704 75.0089,18.5037 90.5,19.5 Z"/></g>
<g><path style="opacity:1" fill="#b7c9de" d="M 90.5,19.5 C 90.6641,22.1873 90.4974,24.854 90,27.5C 86.0394,32.5949 82.2061,37.7616 78.5,43C 78.8499,44.2575 79.5165,44.5908 80.5,44C 83.6667,40.1667 86.8333,36.3333 90,32.5C 90.6667,34.5 90.6667,36.5 90,38.5C 86.0394,43.5949 82.2061,48.7616 78.5,54C 78.8499,55.2575 79.5165,55.5908 80.5,55C 84,50.8333 87.5,46.6667 91,42.5C 94.2085,55.5443 102.375,63.211 115.5,65.5C 118.287,66.4767 121.287,66.81 124.5,66.5C 124.5,72.8333 124.5,79.1667 124.5,85.5C 116.493,85.3336 108.493,85.5003 100.5,86C 89.4086,89.9257 83.4086,97.7591 82.5,109.5C 79.4816,109.665 76.4816,109.498 73.5,109C 70.3938,105.368 68.2271,101.201 67,96.5C 66.2888,83.0943 66.6221,69.761 68,56.5C 65,53.8333 62,53.8333 59,56.5C 58.006,61.118 57.506,65.7847 57.5,70.5C 50.5,70.5 43.5,70.5 36.5,70.5C 39.4622,55.6081 41.7955,40.6081 43.5,25.5C 44.4614,23.7354 44.7947,21.7354 44.5,19.5C 59.8333,19.5 75.1667,19.5 90.5,19.5 Z"/></g>
<g><path style="opacity:1" fill="#a1ebdd" d="M 61.5,57.5 C 64.2605,56.9147 65.9272,57.9147 66.5,60.5C 64.9741,63.6538 64.3075,66.9872 64.5,70.5C 63.1667,70.5 61.8333,70.5 60.5,70.5C 60.3718,66.1186 60.7051,61.7853 61.5,57.5 Z"/></g>
<g><path style="opacity:1" fill="#a1ebdd" d="M 2.5,58.5 C 4.37099,58.8588 5.87099,59.8588 7,61.5C 15.0872,71.3497 14.0872,72.683 4,65.5C 2.79777,63.3225 2.29777,60.9892 2.5,58.5 Z"/></g>
<g><path style="opacity:1" fill="#1ca504" d="M 115.5,65.5 C 118.833,65.5 122.167,65.5 125.5,65.5C 125.824,72.3543 125.491,79.021 124.5,85.5C 124.5,79.1667 124.5,72.8333 124.5,66.5C 121.287,66.81 118.287,66.4767 115.5,65.5 Z"/></g>
<g><path style="opacity:1" fill="#a1ebdd" d="M 177.5,108.5 C 147.167,108.5 116.833,108.5 86.5,108.5C 86.5,107.5 86.5,106.5 86.5,105.5C 87.6688,98.162 91.6688,92.9953 98.5,90C 108.42,88.5766 118.42,88.0766 128.5,88.5C 128.5,80.8333 128.5,73.1667 128.5,65.5C 140.171,65.3335 151.838,65.5001 163.5,66C 173.434,68.9334 179.6,75.4334 182,85.5C 182.667,91.8333 182.667,98.1667 182,104.5C 181.252,106.751 179.752,108.084 177.5,108.5 Z"/></g>
<g><path style="opacity:1" fill="#4c200a" d="M 158.5,69.5 C 169.585,70.8958 174.918,77.0625 174.5,88C 172.909,82.9078 169.909,78.2411 165.5,74C 163.212,73.1779 160.878,72.5112 158.5,72C 157.402,71.2303 157.402,70.397 158.5,69.5 Z"/></g>
<g><path style="opacity:1" fill="#258906" d="M 63.5,73.5 C 48.1667,73.5 32.8333,73.5 17.5,73.5C 17.7947,75.7354 17.4614,77.7354 16.5,79.5C 16.5,77.1667 16.5,74.8333 16.5,72.5C 32.3422,72.1704 48.0089,72.5037 63.5,73.5 Z"/></g>
<g><path style="opacity:1" fill="#b7c9de" d="M 63.5,73.5 C 63.6641,76.1873 63.4974,78.854 63,81.5C 59.0394,86.5949 55.2061,91.7616 51.5,97C 51.8499,98.2575 52.5165,98.5908 53.5,98C 56.6667,94.1667 59.8333,90.3333 63,86.5C 63.6667,88.5 63.6667,90.5 63,92.5C 59.0394,97.5949 55.2061,102.762 51.5,108C 51.8499,109.257 52.5165,109.591 53.5,109C 57,104.833 60.5,100.667 64,96.5C 67.2085,109.544 75.3751,117.211 88.5,119.5C 91.2869,120.477 94.2869,120.81 97.5,120.5C 97.5,126.833 97.5,133.167 97.5,139.5C 89.8261,139.334 82.1594,139.5 74.5,140C 63.0408,143.457 56.7074,151.124 55.5,163C 40.7399,163.966 26.0733,163.633 11.5,162C 11,161.5 10.5,161 10,160.5C 9.33333,146.167 9.33333,131.833 10,117.5C 13.5145,105.066 15.6812,92.3988 16.5,79.5C 17.4614,77.7354 17.7947,75.7354 17.5,73.5C 32.8333,73.5 48.1667,73.5 63.5,73.5 Z"/></g>
<g><path style="opacity:1" fill="#a1ebdd" d="M 86.5,105.5 C 86.5,106.5 86.5,107.5 86.5,108.5C 116.833,108.5 147.167,108.5 177.5,108.5C 147.005,109.498 116.338,109.831 85.5,109.5C 85.2322,107.901 85.5655,106.568 86.5,105.5 Z"/></g>
<g><path style="opacity:1" fill="#32184a" d="M 185.5,112.5 C 149.663,112.168 113.996,112.502 78.5,113.5C 77.7109,113.217 77.0442,112.717 76.5,112C 113.002,111.169 149.336,111.336 185.5,112.5 Z"/></g>
<g><path style="opacity:1" fill="#0401fa" d="M 78.5,113.5 C 113.996,112.502 149.663,112.168 185.5,112.5C 186.496,112.414 187.329,112.748 188,113.5C 188.667,120.167 188.667,126.833 188,133.5C 186.933,134.191 185.766,134.691 184.5,135C 175.149,135.832 165.816,135.665 156.5,134.5C 152.664,124.828 145.664,118.995 135.5,117C 118.5,116.667 101.5,116.333 84.5,116C 82.3594,115.427 80.3594,114.594 78.5,113.5 Z"/></g>
<g><path style="opacity:1" fill="#11c603" d="M 88.5,119.5 C 91.8333,119.5 95.1667,119.5 98.5,119.5C 98.824,126.354 98.4907,133.021 97.5,139.5C 97.5,133.167 97.5,126.833 97.5,120.5C 94.2869,120.81 91.2869,120.477 88.5,119.5 Z"/></g>
<g><path style="opacity:1" fill="#a1ebdd" d="M 101.5,119.5 C 113.171,119.333 124.838,119.5 136.5,120C 146.434,122.933 152.6,129.433 155,139.5C 155.924,146.608 155.591,153.608 154,160.5C 153.097,161.701 151.931,162.535 150.5,163C 120.168,163.5 89.8352,163.667 59.5,163.5C 60.1034,152.456 65.77,145.623 76.5,143C 84.8267,142.5 93.16,142.334 101.5,142.5C 101.5,134.833 101.5,127.167 101.5,119.5 Z"/></g>
<g><path style="opacity:1" fill="#4c200a" d="M 131.5,123.5 C 142.585,124.896 147.918,131.062 147.5,142C 145.909,136.908 142.909,132.241 138.5,128C 136.212,127.178 133.878,126.511 131.5,126C 130.402,125.23 130.402,124.397 131.5,123.5 Z"/></g>
<g><path style="opacity:1" fill="#b7c9de" d="M 3.5,166.5 C 55.8344,166.333 108.168,166.5 160.5,167C 161.645,173.752 161.811,180.586 161,187.5C 159.933,188.191 158.766,188.691 157.5,189C 143.5,189.667 129.5,189.667 115.5,189C 109.924,188.437 105.591,185.77 102.5,181C 100.112,179.139 97.4456,177.806 94.5,177C 78.8333,176.333 63.1667,176.333 47.5,177C 46.5363,181.066 46.203,185.233 46.5,189.5C 32.4021,189.965 18.4021,189.465 4.5,188C 4,187.5 3.5,187 3,186.5C 2.20754,179.753 2.37421,173.086 3.5,166.5 Z"/></g>
</svg>
</svg>