<svg xmlns="http://www.w3.org/2000/svg" width="1000" height="1350" version="1.1">
<rect id="card_background" fill="#ccc" x="0" y="0" width="1000" height="1350" />
  <rect id="character_background" fill="#eee" x="20" y="20" width="960" height="1150" rx="8" />
  <text x="20" y="1225" font-family="serif" font-size="40px" fill="#ffab5d" stroke="#000000">Worthy of love NFT</text>
  <text x="20" y="1275" font-family="serif" font-size="40px" fill="#ffab5d" stroke="#000000">Architect Frpete</text>
  <text x="20" y="1325" font-family="serif" font-size="40px" fill="#ffab5d" stroke="#000000">Rarity class: 2</text>

<svg x="282" y="750" xmlns="http://www.w3.org/2000/svg" version="1.1" width="436px" height="220px" style="shape-rendering:geometricPrecision; text-rendering:geometricPrecision; image-rendering:optimizeQuality; fill-rule:evenodd; clip-rule:evenodd" xmlns:xlink="http://www.w3.org/1999/xlink">
<g><path style="opacity:0.838" fill="#43220d" d="M 0.5,-0.5 C 145.167,-0.5 289.833,-0.5 434.5,-0.5C 434.5,0.166667 434.833,0.5 435.5,0.5C 435.5,1.5 435.5,2.5 435.5,3.5C 417.406,47.536 399.406,91.7027 381.5,136C 399.399,162.985 417.399,189.818 435.5,216.5C 435.5,217.167 435.5,217.833 435.5,218.5C 434.833,218.5 434.5,218.833 434.5,219.5C 289.833,219.5 145.167,219.5 0.5,219.5C 0.5,218.833 0.166667,218.5 -0.5,218.5C -0.5,217.833 -0.5,217.167 -0.5,216.5C 17.6007,189.818 35.6007,162.985 53.5,136C 35.594,91.7027 17.594,47.536 -0.5,3.5C -0.5,2.5 -0.5,1.5 -0.5,0.5C 0.166667,0.5 0.5,0.166667 0.5,-0.5 Z"/></g>
<g><path style="opacity:1" fill="#c3c6c2" d="M 430.5,4.5 C 288.5,3.16667 146.5,3.16667 4.5,4.5C 3.95691,4.44001 3.62358,4.10667 3.5,3.5C 146.167,2.16667 288.833,2.16667 431.5,3.5C 431.376,4.10667 431.043,4.44001 430.5,4.5 Z"/></g>
<g><path style="opacity:1" fill="#c3c6c2" d="M 430.5,4.5 C 413.072,48.2835 395.738,92.1168 378.5,136C 395.271,162.28 412.271,188.446 429.5,214.5C 288.167,215.833 146.833,215.833 5.5,214.5C 22.7291,188.446 39.7291,162.28 56.5,136C 39.2618,92.1168 21.9285,48.2835 4.5,4.5C 146.5,3.16667 288.5,3.16667 430.5,4.5 Z"/></g>
<g><path style="opacity:1" fill="#c3c6c2" d="M 5.5,214.5 C 146.833,215.833 288.167,215.833 429.5,214.5C 430.043,214.56 430.376,214.893 430.5,215.5C 288.5,216.833 146.5,216.833 4.5,215.5C 4.62358,214.893 4.95691,214.56 5.5,214.5 Z"/></g>
</svg>

<svg x="336" y="534" xmlns="http://www.w3.org/2000/svg" version="1.1" width="328px" height="220px" style="shape-rendering:geometricPrecision; text-rendering:geometricPrecision; image-rendering:optimizeQuality; fill-rule:evenodd; clip-rule:evenodd" xmlns:xlink="http://www.w3.org/1999/xlink">
<g><path style="opacity:0.906" fill="#482814" d="M 0.5,-0.5 C 109.167,-0.5 217.833,-0.5 326.5,-0.5C 326.5,0.166667 326.833,0.5 327.5,0.5C 327.5,73.1667 327.5,145.833 327.5,218.5C 326.833,218.5 326.5,218.833 326.5,219.5C 217.833,219.5 109.167,219.5 0.5,219.5C 0.5,218.833 0.166667,218.5 -0.5,218.5C -0.5,145.833 -0.5,73.1667 -0.5,0.5C 0.166667,0.5 0.5,0.166667 0.5,-0.5 Z"/></g>
<g><path style="opacity:1" fill="#dec2bf" d="M 84.5,2.5 C 136.998,1.33492 189.665,1.16825 242.5,2C 216.288,36.923 189.955,71.7563 163.5,106.5C 137.146,71.765 110.813,37.0983 84.5,2.5 Z"/></g>
<g><path style="opacity:1" fill="#dec2bf" d="M 4.5,3.5 C 29.9967,2.33659 55.6634,2.16992 81.5,3C 108.698,38.5651 135.532,74.3984 162,110.5C 162.667,144.5 162.667,178.5 162,212.5C 109.637,142.649 57.1366,72.9827 4.5,3.5 Z"/></g>
<g><path style="opacity:1" fill="#dec2bf" d="M 245.5,2.5 C 271.169,2.33336 296.835,2.50003 322.5,3C 270,72.8333 217.5,142.667 165,212.5C 164.333,178.5 164.333,144.5 165,110.5C 191.665,74.3404 218.499,38.3404 245.5,2.5 Z"/></g>
<g><path style="opacity:1" fill="#dec2bf" d="M 2.5,6.5 C 55.3033,76.1493 107.97,145.983 160.5,216C 107.929,216.831 55.4294,216.664 3,215.5C 2.5,145.834 2.33334,76.1675 2.5,6.5 Z"/></g>
<g><path style="opacity:1" fill="#dec2bf" d="M 323.5,6.5 C 324.665,75.9988 324.832,145.665 324,215.5C 271.571,216.664 219.071,216.831 166.5,216C 219.05,146.29 271.383,76.4563 323.5,6.5 Z"/></g>
</svg>

<svg x="282" y="318" xmlns="http://www.w3.org/2000/svg" version="1.1" width="436px" height="220px" style="shape-rendering:geometricPrecision; text-rendering:geometricPrecision; image-rendering:optimizeQuality; fill-rule:evenodd; clip-rule:evenodd" xmlns:xlink="http://www.w3.org/1999/xlink">
<g><path style="opacity:0.836" fill="#44230e" d="M 71.5,-0.5 C 168.833,-0.5 266.167,-0.5 363.5,-0.5C 397.615,4.76993 420.449,23.7699 432,56.5C 433.36,61.5962 434.526,66.5962 435.5,71.5C 435.5,96.8333 435.5,122.167 435.5,147.5C 430.23,181.615 411.23,204.449 378.5,216C 373.404,217.36 368.404,218.526 363.5,219.5C 266.167,219.5 168.833,219.5 71.5,219.5C 37.3846,214.23 14.5513,195.23 3,162.5C 1.64036,157.404 0.473697,152.404 -0.5,147.5C -0.5,122.167 -0.5,96.8333 -0.5,71.5C 4.76993,37.3846 23.7699,14.5513 56.5,3C 61.5962,1.64036 66.5962,0.473697 71.5,-0.5 Z"/></g>
<g><path style="opacity:1" fill="#ff5b93" d="M 75.5,2.5 C 170.167,2.33334 264.834,2.5 359.5,3C 395.697,7.19664 419.197,26.6966 430,61.5C 430.83,66.143 431.497,70.8097 432,75.5C 432.667,98.1667 432.667,120.833 432,143.5C 428.54,175.618 412.04,198.118 382.5,211C 375.049,213.631 367.382,215.298 359.5,216C 264.833,216.667 170.167,216.667 75.5,216C 43.3965,212.559 20.8965,196.059 8,166.5C 5.36893,159.049 3.70227,151.382 3,143.5C 2.07887,118.138 2.41221,92.8046 4,67.5C 9.89327,38.2678 26.7266,18.1011 54.5,7C 61.5419,5.05477 68.5419,3.55477 75.5,2.5 Z"/></g>
</svg>

<svg x="336" y="102" xmlns="http://www.w3.org/2000/svg" version="1.1" width="328px" height="220px" style="shape-rendering:geometricPrecision; text-rendering:geometricPrecision; image-rendering:optimizeQuality; fill-rule:evenodd; clip-rule:evenodd" xmlns:xlink="http://www.w3.org/1999/xlink">
<g><path style="opacity:0.844" fill="#462612" d="M 81.5,-0.5 C 82.1667,-0.5 82.8333,-0.5 83.5,-0.5C 100.62,49.3607 117.454,99.3607 134,149.5C 134.171,99.4293 134.671,49.4293 135.5,-0.5C 136.167,-0.5 136.833,-0.5 137.5,-0.5C 146.269,49.1111 154.935,98.7777 163.5,148.5C 172.065,98.7777 180.731,49.1111 189.5,-0.5C 190.167,-0.5 190.833,-0.5 191.5,-0.5C 192.329,49.4293 192.829,99.4293 193,149.5C 209.546,99.3607 226.38,49.3607 243.5,-0.5C 244.167,-0.5 244.833,-0.5 245.5,-0.5C 245.982,0.416349 246.315,1.41635 246.5,2.5C 237.89,52.1597 229.723,101.826 222,151.5C 247.041,109.917 272.208,68.4168 297.5,27C 300.091,26.6992 300.925,27.8659 300,30.5C 283.045,71.7194 266.712,113.053 251,154.5C 275.5,130 300,105.5 324.5,81C 325.577,80.5304 326.577,80.6971 327.5,81.5C 327.5,82.5 327.5,83.5 327.5,84.5C 299.93,129.298 272.597,174.298 245.5,219.5C 190.833,219.5 136.167,219.5 81.5,219.5C 54.4034,174.298 27.0701,129.298 -0.5,84.5C -0.5,83.5 -0.5,82.5 -0.5,81.5C 0.423175,80.6971 1.42317,80.5304 2.5,81C 27,105.5 51.5,130 76,154.5C 60.2883,113.053 43.955,71.7194 27,30.5C 26.0752,27.8659 26.9085,26.6992 29.5,27C 54.7923,68.4168 79.959,109.917 105,151.5C 97.2768,101.826 89.1101,52.1597 80.5,2.5C 80.685,1.41635 81.0183,0.416349 81.5,-0.5 Z"/></g>
<g><path style="opacity:1" fill="#faf4b9" d="M 139.5,26.5 C 138.833,72.1667 138.167,117.833 137.5,163.5C 137.333,115.832 137.5,68.1655 138,20.5C 138.813,22.4357 139.313,24.4357 139.5,26.5 Z"/></g>
<g><path style="opacity:1" fill="#faf4b9" d="M 189.5,163.5 C 188.833,117.833 188.167,72.1667 187.5,26.5C 187.687,24.4357 188.187,22.4357 189,20.5C 189.5,68.1655 189.667,115.832 189.5,163.5 Z"/></g>
<g><path style="opacity:1" fill="#faf4b9" d="M 137.5,163.5 C 138.167,117.833 138.833,72.1667 139.5,26.5C 146.34,70.54 153.507,114.54 161,158.5C 162.667,166.5 164.333,166.5 166,158.5C 173.493,114.54 180.66,70.54 187.5,26.5C 188.167,72.1667 188.833,117.833 189.5,163.5C 190.189,164.774 191.023,164.774 192,163.5C 207.667,116.5 223.333,69.5 239,22.5C 231.894,67.1348 224.561,111.801 217,156.5C 216.182,159.227 216.348,161.894 217.5,164.5C 241.739,126.369 265.239,87.702 288,48.5C 288.167,49 288.333,49.5 288.5,50C 272.799,87.9431 257.799,126.11 243.5,164.5C 244.552,164.649 245.552,164.483 246.5,164C 269.694,140.47 293.027,117.47 316.5,95C 292.167,135.333 267.833,175.667 243.5,216C 190.167,216.667 136.833,216.667 83.5,216C 59.4446,176.721 35.7779,137.221 12.5,97.5C 12.5,96.8333 12.8333,96.5 13.5,96.5C 35.6317,119.132 57.965,141.632 80.5,164C 81.448,164.483 82.448,164.649 83.5,164.5C 69.2006,126.11 54.2006,87.9431 38.5,50C 61.6455,86.2964 84.4788,123.796 107,162.5C 107.689,163.357 108.522,164.023 109.5,164.5C 110.652,161.894 110.818,159.227 110,156.5C 102.439,111.801 95.1056,67.1348 88,22.5C 103.667,69.5 119.333,116.5 135,163.5C 135.977,164.774 136.811,164.774 137.5,163.5 Z"/></g>
<g><path style="opacity:1" fill="#faf4b9" d="M 13.5,96.5 C 12.8333,96.5 12.5,96.8333 12.5,97.5C 10.9302,96.1252 10.0969,94.4585 10,92.5C 11.3756,93.7051 12.5423,95.0384 13.5,96.5 Z"/></g>
</svg>

<svg x="360" y="341" xmlns="http://www.w3.org/2000/svg" version="1.1" width="279px" height="189px" style="shape-rendering:geometricPrecision; text-rendering:geometricPrecision; image-rendering:optimizeQuality; fill-rule:evenodd; clip-rule:evenodd" xmlns:xlink="http://www.w3.org/1999/xlink">
<g><path style="opacity:0.532" fill="#41210a" d="M 166.5,0.5 C 167.324,4.31227 167.824,8.31227 168,12.5C 172.015,8.31786 176.182,4.31786 180.5,0.5C 181.327,4.45922 181.827,8.45922 182,12.5C 186.015,8.31786 190.182,4.31786 194.5,0.5C 195.325,4.12236 195.825,7.78902 196,11.5C 199.5,8 203,4.5 206.5,1C 207.448,0.517215 208.448,0.350549 209.5,0.5C 209.335,4.18174 209.501,7.84841 210,11.5C 213.5,8 217,4.5 220.5,1C 221.5,0.333333 222.5,0.333333 223.5,1C 218.652,6.01515 213.652,10.8485 208.5,15.5C 207.675,11.8776 207.175,8.21098 207,4.5C 203.5,8 200,11.5 196.5,15C 195.552,15.4828 194.552,15.6495 193.5,15.5C 193.665,11.8183 193.499,8.15159 193,4.5C 189.5,8 186,11.5 182.5,15C 181.552,15.4828 180.552,15.6495 179.5,15.5C 179.665,11.8183 179.499,8.15159 179,4.5C 175.318,8.34898 171.485,12.0156 167.5,15.5C 166.506,10.544 166.173,5.54396 166.5,0.5 Z"/></g>
<g><path style="opacity:0.515" fill="#41210a" d="M 74.5,7.5 C 87.9194,6.17969 100.586,8.51302 112.5,14.5C 112,14.8333 111.5,15.1667 111,15.5C 92.9879,7.50121 74.9879,7.50121 57,15.5C 56.5,15.1667 56,14.8333 55.5,14.5C 61.5523,11.152 67.8856,8.81868 74.5,7.5 Z"/></g>
<g><path style="opacity:0.489" fill="#42220d" d="M 55.5,21.5 C 74.326,20.503 93.326,20.1697 112.5,20.5C 112.5,39.1667 112.5,57.8333 112.5,76.5C 112.5,76.8333 112.5,77.1667 112.5,77.5C 111.503,95.9925 111.17,114.659 111.5,133.5C 110.503,115.341 110.17,97.0076 110.5,78.5C 92.8333,78.5 75.1667,78.5 57.5,78.5C 57.8302,97.0076 57.4968,115.341 56.5,133.5C 56.5,114.833 56.5,96.1667 56.5,77.5C 65.6822,77.8266 74.6822,77.4933 83.5,76.5C 83.5,58.5 83.5,40.5 83.5,22.5C 74.3483,21.5064 65.015,21.1731 55.5,21.5 Z"/></g>
<g><path style="opacity:0.69" fill="#462811" d="M 223.5,76.5 C 223.5,76.8333 223.5,77.1667 223.5,77.5C 222.833,77.8333 222.167,78.1667 221.5,78.5C 203.5,78.5 185.5,78.5 167.5,78.5C 167.5,96.5 167.5,114.5 167.5,132.5C 166.833,132.5 166.5,132.167 166.5,131.5C 166.5,113.5 166.5,95.5 166.5,77.5C 148.5,77.5 130.5,77.5 112.5,77.5C 112.5,77.1667 112.5,76.8333 112.5,76.5C 130.5,76.5 148.5,76.5 166.5,76.5C 166.5,57.8333 166.5,39.1667 166.5,20.5C 185.5,20.5 204.5,20.5 223.5,20.5C 223.5,39.1667 223.5,57.8333 223.5,76.5 Z"/></g>
<g><path style="opacity:0.878" fill="#624631" d="M 55.5,21.5 C 65.015,21.1731 74.3483,21.5064 83.5,22.5C 74.5,22.5 65.5,22.5 56.5,22.5C 56.5,40.5 56.5,58.5 56.5,76.5C 65.5,76.5 74.5,76.5 83.5,76.5C 74.6822,77.4933 65.6822,77.8266 56.5,77.5C 56.5,96.1667 56.5,114.833 56.5,133.5C 45.495,133.667 34.495,133.5 23.5,133C 9.63776,129.312 1.63776,120.478 -0.5,106.5C -0.5,105.5 -0.5,104.5 -0.5,103.5C 0.797624,89.7762 8.13096,80.9428 21.5,77C 32.8284,76.5001 44.1618,76.3335 55.5,76.5C 55.5,58.1667 55.5,39.8333 55.5,21.5 Z"/></g>
<g><path style="opacity:1" fill="#c3c6c2" d="M 83.5,22.5 C 83.5,40.5 83.5,58.5 83.5,76.5C 74.5,76.5 65.5,76.5 56.5,76.5C 56.5,58.5 56.5,40.5 56.5,22.5C 65.5,22.5 74.5,22.5 83.5,22.5 Z"/></g>
<g><path style="opacity:1" fill="#412917" d="M 84.5,22.5 C 93.1667,22.5 101.833,22.5 110.5,22.5C 110.5,40.5 110.5,58.5 110.5,76.5C 101.833,76.5 93.1667,76.5 84.5,76.5C 84.5,58.5 84.5,40.5 84.5,22.5 Z"/></g>
<g><path style="opacity:1" fill="#f6f2d6" d="M 167.5,22.5 C 176.5,22.5 185.5,22.5 194.5,22.5C 194.5,40.5 194.5,58.5 194.5,76.5C 185.5,76.5 176.5,76.5 167.5,76.5C 167.5,58.5 167.5,40.5 167.5,22.5 Z"/></g>
<g><path style="opacity:1" fill="#412917" d="M 195.5,22.5 C 204.167,22.5 212.833,22.5 221.5,22.5C 221.5,40.5 221.5,58.5 221.5,76.5C 212.833,76.5 204.167,76.5 195.5,76.5C 195.5,58.5 195.5,40.5 195.5,22.5 Z"/></g>
<g><path style="opacity:0.563" fill="#694e3c" d="M 223.5,76.5 C 235.909,76.0606 248.242,76.5606 260.5,78C 269.608,82.264 275.608,89.0974 278.5,98.5C 278.5,102.833 278.5,107.167 278.5,111.5C 275.539,121.301 269.205,128.134 259.5,132C 246.894,133.42 234.228,133.92 221.5,133.5C 221.5,115.167 221.5,96.8333 221.5,78.5C 222.167,78.1667 222.833,77.8333 223.5,77.5C 223.5,77.1667 223.5,76.8333 223.5,76.5 Z"/></g>
<g><path style="opacity:1" fill="#c3c6c2" d="M 23.5,77.5 C 34.1667,77.5 44.8333,77.5 55.5,77.5C 55.5,95.5 55.5,113.5 55.5,131.5C 43.8286,131.667 32.1619,131.5 20.5,131C 1.73829,122.049 -3.09505,108.215 6,89.5C 10.5048,83.3482 16.3381,79.3482 23.5,77.5 Z"/></g>
<g><path style="opacity:1" fill="#81e37c" d="M 112.5,77.5 C 130.5,77.5 148.5,77.5 166.5,77.5C 166.5,95.5 166.5,113.5 166.5,131.5C 148.5,131.5 130.5,131.5 112.5,131.5C 112.5,113.5 112.5,95.5 112.5,77.5 Z"/></g>
<g><path style="opacity:1" fill="#c3c6c2" d="M 223.5,77.5 C 233.506,77.3335 243.506,77.5002 253.5,78C 270.752,82.0002 278.586,92.8336 277,110.5C 274.653,119.71 269.153,126.21 260.5,130C 248.228,131.418 235.895,131.918 223.5,131.5C 223.5,113.5 223.5,95.5 223.5,77.5 Z"/></g>
<g><path style="opacity:1" fill="#80de7a" d="M 145.5,92.5 C 145.973,93.9063 146.973,94.573 148.5,94.5C 150.805,97.4075 152.138,100.741 152.5,104.5C 143.833,104.5 135.167,104.5 126.5,104.5C 126.818,100.199 128.485,96.5322 131.5,93.5C 136.048,91.4081 140.714,91.0748 145.5,92.5 Z"/></g>
<g><path style="opacity:1" fill="#504721" d="M 145.5,92.5 C 140.714,91.0748 136.048,91.4081 131.5,93.5C 133.332,91.1058 135.832,90.1058 139,90.5C 141.544,90.336 143.71,91.0027 145.5,92.5 Z"/></g>
<g><path style="opacity:1" fill="#514c23" d="M 145.5,92.5 C 147.027,92.427 148.027,93.0937 148.5,94.5C 146.973,94.573 145.973,93.9063 145.5,92.5 Z"/></g>
<g><path style="opacity:1" fill="#535328" d="M 131.5,93.5 C 128.485,96.5322 126.818,100.199 126.5,104.5C 135.167,104.5 143.833,104.5 152.5,104.5C 152.138,100.741 150.805,97.4075 148.5,94.5C 150.453,95.6258 151.953,97.2925 153,99.5C 153.667,102.833 153.667,106.167 153,109.5C 152.722,110.416 152.222,111.082 151.5,111.5C 151.833,109.5 152.167,107.5 152.5,105.5C 143.833,105.5 135.167,105.5 126.5,105.5C 126.387,108.049 127.054,110.382 128.5,112.5C 128.154,113.696 127.654,113.696 127,112.5C 124.167,108.006 123.834,103.339 126,98.5C 127.076,95.921 128.909,94.2543 131.5,93.5 Z"/></g>
<g><path style="opacity:1" fill="#5a6734" d="M 151.5,111.5 C 148.149,117.908 142.816,120.408 135.5,119C 133.668,118.252 132.001,117.252 130.5,116C 134.978,117.378 139.644,117.711 144.5,117C 146.996,115.334 149.329,113.5 151.5,111.5 Z"/></g>
<g><path style="opacity:0.627" fill="#596432" d="M 112.5,77.5 C 112.5,95.5 112.5,113.5 112.5,131.5C 130.5,131.5 148.5,131.5 166.5,131.5C 166.5,132.167 166.833,132.5 167.5,132.5C 149.007,133.497 130.341,133.83 111.5,133.5C 111.17,114.659 111.503,95.9925 112.5,77.5 Z"/></g>
<g><path style="opacity:0.816" fill="#4d2318" d="M 146.5,188.5 C 141.833,188.5 137.167,188.5 132.5,188.5C 122.708,185.547 115.874,179.214 112,169.5C 111.03,162.19 110.197,154.857 109.5,147.5C 101.059,145.22 97.0592,139.887 97.5,131.5C 98.729,137.307 101.896,141.641 107,144.5C 128.136,145.65 149.302,145.817 170.5,145C 176.704,142.629 180.038,138.129 180.5,131.5C 181.457,140.895 177.124,146.229 167.5,147.5C 171.605,167.343 164.605,181.009 146.5,188.5 Z"/></g>
<g><path style="opacity:1" fill="#e741b9" d="M 112.5,146.5 C 130.5,146.5 148.5,146.5 166.5,146.5C 167.572,156.619 166.072,166.286 162,175.5C 151.504,188.225 139.004,190.725 124.5,183C 118.725,178.886 114.892,173.386 113,166.5C 112.5,159.842 112.334,153.175 112.5,146.5 Z"/></g>
</svg>

<svg x="500" y="696" xmlns="http://www.w3.org/2000/svg" version="1.1" width="247px" height="274px" style="shape-rendering:geometricPrecision; text-rendering:geometricPrecision; image-rendering:optimizeQuality; fill-rule:evenodd; clip-rule:evenodd" xmlns:xlink="http://www.w3.org/1999/xlink">
<g><path style="opacity:0.891" fill="#000000" d="M 200.5,-0.5 C 202.833,-0.5 205.167,-0.5 207.5,-0.5C 210.2,1.04602 212.033,3.37935 213,6.5C 223.5,40.4999 234.667,74.1665 246.5,107.5C 246.5,135.5 246.5,163.5 246.5,191.5C 238.833,238.5 211.5,265.833 164.5,273.5C 118.833,273.5 73.1667,273.5 27.5,273.5C 18.5,263.833 9.16667,254.5 -0.5,245.5C -0.5,235.833 -0.5,226.167 -0.5,216.5C 8.96503,207.536 18.2984,198.369 27.5,189C 65.8333,188.667 104.167,188.333 142.5,188C 152,185.167 158.167,179 161,169.5C 161.333,148.833 161.667,128.167 162,107.5C 173.403,73.9578 184.403,40.2911 195,6.5C 195.967,3.37935 197.8,1.04602 200.5,-0.5 Z"/></g>
<g><path style="opacity:1" fill="#a1ebdd" d="M 214.5,24.5 C 211.402,25.821 207.902,26.4877 204,26.5C 200.098,26.4877 196.598,25.821 193.5,24.5C 194.863,18.0505 196.696,11.7172 199,5.5C 202.333,1.5 205.667,1.5 209,5.5C 211.304,11.7172 213.137,18.0505 214.5,24.5 Z"/></g>
<g><path style="opacity:1" fill="#a1ebdd" d="M 193.5,24.5 C 196.598,25.821 200.098,26.4877 204,26.5C 207.902,26.4877 211.402,25.821 214.5,24.5C 215.404,25.209 215.737,26.209 215.5,27.5C 207.833,27.5 200.167,27.5 192.5,27.5C 192.263,26.209 192.596,25.209 193.5,24.5 Z"/></g>
<g><path style="opacity:1" fill="#f1decb" d="M 191.5,29.5 C 199.86,29.1688 208.193,29.5021 216.5,30.5C 225.265,56.2963 233.932,82.1297 242.5,108C 234.362,116.972 226.029,125.806 217.5,134.5C 208.5,135.833 199.5,135.833 190.5,134.5C 181.971,125.806 173.638,116.972 165.5,108C 174.273,81.8468 182.94,55.6801 191.5,29.5 Z"/></g>
<g><path style="opacity:1" fill="#219105" d="M 166.5,114.5 C 165.833,132.5 165.167,150.5 164.5,168.5C 164.167,150.155 164.5,131.821 165.5,113.5C 166.107,113.624 166.44,113.957 166.5,114.5 Z"/></g>
<g><path style="opacity:1" fill="#dec2bf" d="M 241.5,114.5 C 241.56,113.957 241.893,113.624 242.5,113.5C 243.829,139.664 243.829,165.664 242.5,191.5C 242.831,165.661 242.498,139.995 241.5,114.5 Z"/></g>
<g><path style="opacity:1" fill="#dec2bf" d="M 166.5,114.5 C 173.464,121.965 180.631,129.298 188,136.5C 188.667,152.5 188.667,168.5 188,184.5C 183.833,200.667 173.667,210.833 157.5,215C 132.5,215.667 107.5,215.667 82.5,215C 74.8333,207.333 67.1667,199.667 59.5,192C 87.5,191.667 115.5,191.333 143.5,191C 155.161,187.84 162.161,180.34 164.5,168.5C 165.167,150.5 165.833,132.5 166.5,114.5 Z"/></g>
<g><path style="opacity:1" fill="#dec2bf" d="M 241.5,114.5 C 242.498,139.995 242.831,165.661 242.5,191.5C 237.986,227.186 218.986,251.686 185.5,265C 178.4,267.657 171.066,269.157 163.5,269.5C 128.996,269.832 94.6626,269.498 60.5,268.5C 68.1457,261.521 75.479,254.188 82.5,246.5C 109.494,245.667 136.494,245.167 163.5,245C 191.154,239.68 208.988,223.513 217,196.5C 218.257,176.871 218.924,157.204 219,137.5C 226.702,129.965 234.202,122.298 241.5,114.5 Z"/></g>
<g><path style="opacity:1" fill="#211184" d="M 215.5,138.5 C 207.833,138.5 200.167,138.5 192.5,138.5C 192.829,152.344 192.496,166.01 191.5,179.5C 191.5,165.5 191.5,151.5 191.5,137.5C 199.684,137.174 207.684,137.508 215.5,138.5 Z"/></g>
<g><path style="opacity:1" fill="#ff5b93" d="M 215.5,138.5 C 215.936,157.88 215.436,177.213 214,196.5C 205.782,220.72 189.282,235.886 164.5,242C 137.835,242.5 111.169,242.667 84.5,242.5C 84.5,234.5 84.5,226.5 84.5,218.5C 108.836,218.667 133.169,218.5 157.5,218C 177.961,213.253 189.295,200.419 191.5,179.5C 192.496,166.01 192.829,152.344 192.5,138.5C 200.167,138.5 207.833,138.5 215.5,138.5 Z"/></g>
<g><path style="opacity:1" fill="#f1ddca" d="M 28.5,191.5 C 37.5246,191.168 46.5246,191.502 55.5,192.5C 63.5,201.167 71.8333,209.5 80.5,217.5C 81.6652,226.147 81.8319,234.814 81,243.5C 72.1667,252.333 63.3333,261.167 54.5,270C 45.8142,270.832 37.1475,270.665 28.5,269.5C 20.5,260.833 12.1667,252.5 3.5,244.5C 2.16667,235.5 2.16667,226.5 3.5,217.5C 12.5769,209.426 20.9103,200.759 28.5,191.5 Z"/></g>
<g><path style="opacity:1" fill="#522914" d="M 38.5,215.5 C 51.3126,215.478 57.4793,221.811 57,234.5C 50.4163,247.865 41.4163,249.865 30,240.5C 23.9582,229.125 26.7916,220.792 38.5,215.5 Z"/></g>
<g><path style="opacity:1" fill="#a1ebdd" d="M 39.5,218.5 C 50.2287,219.382 54.7287,225.049 53,235.5C 49.6772,241.908 44.5105,244.075 37.5,242C 30.9298,238.345 28.7632,232.845 31,225.5C 33.4639,222.519 36.2972,220.186 39.5,218.5 Z"/></g>
<g><path style="opacity:1" fill="#228e06" d="M 60.5,268.5 C 94.6626,269.498 128.996,269.832 163.5,269.5C 128.998,270.83 94.331,270.83 59.5,269.5C 59.6236,268.893 59.9569,268.56 60.5,268.5 Z"/></g>
</svg>
</svg>