<svg xmlns="http://www.w3.org/2000/svg" width="1000" height="1350" version="1.1">
<rect id="card_background" fill="#ccc" x="0" y="0" width="1000" height="1350" />
  <rect id="character_background" fill="#eee" x="20" y="20" width="960" height="1150" rx="8" />
  <text x="20" y="1225" font-family="serif" font-size="40px" fill="#d1cbc3" stroke="#000000">Worthy of love NFT</text>
  <text x="20" y="1275" font-family="serif" font-size="40px" fill="#d1cbc3" stroke="#000000">Worker Mady-</text>
  <text x="20" y="1325" font-family="serif" font-size="40px" fill="#d1cbc3" stroke="#000000">Rarity class: 1</text>

<svg x="282" y="750" xmlns="http://www.w3.org/2000/svg" version="1.1" width="436px" height="220px" style="shape-rendering:geometricPrecision; text-rendering:geometricPrecision; image-rendering:optimizeQuality; fill-rule:evenodd; clip-rule:evenodd" xmlns:xlink="http://www.w3.org/1999/xlink">
<g><path style="opacity:0.824" fill="#462510" d="M 0.5,-0.5 C 145.167,-0.5 289.833,-0.5 434.5,-0.5C 434.5,0.166667 434.833,0.5 435.5,0.5C 435.5,1.5 435.5,2.5 435.5,3.5C 426.334,20.4989 417.667,37.8322 409.5,55.5C 417.667,73.1678 426.334,90.5011 435.5,107.5C 435.5,108.833 435.5,110.167 435.5,111.5C 426.334,128.499 417.667,145.832 409.5,163.5C 417.667,181.168 426.334,198.501 435.5,215.5C 435.5,216.5 435.5,217.5 435.5,218.5C 434.833,218.5 434.5,218.833 434.5,219.5C 433.5,219.5 432.5,219.5 431.5,219.5C 405.339,210.334 379.006,201.334 352.5,192.5C 325.994,201.334 299.661,210.334 273.5,219.5C 272.167,219.5 270.833,219.5 269.5,219.5C 252.139,210.402 234.639,201.402 217,192.5C 190.715,201.428 164.548,210.428 138.5,219.5C 137.167,219.5 135.833,219.5 134.5,219.5C 117.139,210.402 99.6394,201.402 82,192.5C 55.7147,201.428 29.5481,210.428 3.5,219.5C 2.5,219.5 1.5,219.5 0.5,219.5C 0.5,218.833 0.166667,218.5 -0.5,218.5C -0.5,217.5 -0.5,216.5 -0.5,215.5C 8.66611,198.501 17.3328,181.168 25.5,163.5C 17.3328,145.832 8.66611,128.499 -0.5,111.5C -0.5,110.5 -0.5,109.5 -0.5,108.5C 17.479,91.1877 35.1457,73.521 52.5,55.5C 35.1457,37.479 17.479,19.8123 -0.5,2.5C -0.5,1.83333 -0.5,1.16667 -0.5,0.5C 0.166667,0.5 0.5,0.166667 0.5,-0.5 Z"/></g>
<g><path style="opacity:1" fill="#d1cbc3" d="M 430.5,3.5 C 288.999,3.16706 147.666,3.5004 6.5,4.5C 5.95691,4.44001 5.62358,4.10667 5.5,3.5C 147.333,2.16745 288.999,2.16745 430.5,3.5 Z"/></g>
<g><path style="opacity:1" fill="#d1cbc3" d="M 6.5,4.5 C 147.666,3.5004 288.999,3.16706 430.5,3.5C 422.175,20.8166 413.842,38.15 405.5,55.5C 414.167,73.5 422.833,91.5 431.5,109.5C 422.833,127.5 414.167,145.5 405.5,163.5C 413.431,180.529 421.764,197.362 430.5,214C 404.35,206.063 378.183,197.896 352,189.5C 325.084,197.861 298.251,206.527 271.5,215.5C 253.272,206.552 234.938,197.885 216.5,189.5C 189.777,197.963 163.111,206.63 136.5,215.5C 118.272,206.552 99.9385,197.885 81.5,189.5C 55.7711,197.8 30.1044,205.967 4.5,214C 13.2357,197.362 21.569,180.529 29.5,163.5C 21.1079,145.716 12.4413,128.049 3.5,110.5C 20.8194,92.6805 38.3194,75.0139 56,57.5C 56.6667,56.1667 56.6667,54.8333 56,53.5C 39.6319,36.9649 23.1319,20.6316 6.5,4.5 Z"/></g>
</svg>

<svg x="336" y="534" xmlns="http://www.w3.org/2000/svg" version="1.1" width="328px" height="220px" style="shape-rendering:geometricPrecision; text-rendering:geometricPrecision; image-rendering:optimizeQuality; fill-rule:evenodd; clip-rule:evenodd" xmlns:xlink="http://www.w3.org/1999/xlink">
<g><path style="opacity:0.906" fill="#482814" d="M 0.5,-0.5 C 109.167,-0.5 217.833,-0.5 326.5,-0.5C 326.5,0.166667 326.833,0.5 327.5,0.5C 327.5,73.1667 327.5,145.833 327.5,218.5C 326.833,218.5 326.5,218.833 326.5,219.5C 217.833,219.5 109.167,219.5 0.5,219.5C 0.5,218.833 0.166667,218.5 -0.5,218.5C -0.5,145.833 -0.5,73.1667 -0.5,0.5C 0.166667,0.5 0.5,0.166667 0.5,-0.5 Z"/></g>
<g><path style="opacity:1" fill="#ffab5d" d="M 84.5,2.5 C 136.998,1.33492 189.665,1.16825 242.5,2C 216.288,36.923 189.955,71.7563 163.5,106.5C 137.146,71.765 110.813,37.0983 84.5,2.5 Z"/></g>
<g><path style="opacity:1" fill="#ffab5d" d="M 4.5,3.5 C 29.9967,2.33659 55.6634,2.16992 81.5,3C 108.698,38.5651 135.532,74.3984 162,110.5C 162.667,144.5 162.667,178.5 162,212.5C 109.637,142.649 57.1366,72.9827 4.5,3.5 Z"/></g>
<g><path style="opacity:1" fill="#ffab5d" d="M 245.5,2.5 C 271.169,2.33336 296.835,2.50003 322.5,3C 270,72.8333 217.5,142.667 165,212.5C 164.333,178.5 164.333,144.5 165,110.5C 191.665,74.3404 218.499,38.3404 245.5,2.5 Z"/></g>
<g><path style="opacity:1" fill="#ffab5d" d="M 2.5,6.5 C 55.3033,76.1493 107.97,145.983 160.5,216C 107.929,216.831 55.4294,216.664 3,215.5C 2.5,145.834 2.33334,76.1675 2.5,6.5 Z"/></g>
<g><path style="opacity:1" fill="#ffab5d" d="M 323.5,6.5 C 324.665,75.9988 324.832,145.665 324,215.5C 271.571,216.664 219.071,216.831 166.5,216C 219.05,146.29 271.383,76.4563 323.5,6.5 Z"/></g>
</svg>

<svg x="282" y="318" xmlns="http://www.w3.org/2000/svg" version="1.1" width="436px" height="220px" style="shape-rendering:geometricPrecision; text-rendering:geometricPrecision; image-rendering:optimizeQuality; fill-rule:evenodd; clip-rule:evenodd" xmlns:xlink="http://www.w3.org/1999/xlink">
<g><path style="opacity:0.837" fill="#452410" d="M 183.5,-0.5 C 206.167,-0.5 228.833,-0.5 251.5,-0.5C 284.877,7.41554 301.377,28.7489 301,63.5C 306.167,87.3333 320.667,101.833 344.5,107C 358.5,107.333 372.5,107.667 386.5,108C 414.012,113.013 430.346,129.179 435.5,156.5C 435.5,161.167 435.5,165.833 435.5,170.5C 430.167,197.833 413.833,214.167 386.5,219.5C 273.833,219.5 161.167,219.5 48.5,219.5C 21.1667,214.167 4.83333,197.833 -0.5,170.5C -0.5,165.833 -0.5,161.167 -0.5,156.5C 4.65437,129.179 20.9877,113.013 48.5,108C 62.5,107.667 76.5,107.333 90.5,107C 114.333,101.833 128.833,87.3333 134,63.5C 133.623,28.7489 150.123,7.41554 183.5,-0.5 Z"/></g>
<g><path style="opacity:1" fill="#dec2bf" d="M 184.5,2.5 C 206.503,2.33337 228.503,2.50004 250.5,3C 283.207,10.7379 299.041,31.5712 298,65.5C 303.522,89.6883 318.355,104.522 342.5,110C 356.833,110.333 371.167,110.667 385.5,111C 414.179,116.883 429.512,134.383 431.5,163.5C 429.512,192.617 414.179,210.117 385.5,216C 273.5,216.667 161.5,216.667 49.5,216C 15.8355,208.193 0.668874,187.026 4,152.5C 10.4572,129.178 25.6239,115.344 49.5,111C 63.5,110.667 77.5,110.333 91.5,110C 116.215,104.951 131.382,90.1181 137,65.5C 136.157,31.5532 151.991,10.5532 184.5,2.5 Z"/></g>
</svg>

<svg x="349" y="102" xmlns="http://www.w3.org/2000/svg" version="1.1" width="301px" height="220px" style="shape-rendering:geometricPrecision; text-rendering:geometricPrecision; image-rendering:optimizeQuality; fill-rule:evenodd; clip-rule:evenodd" xmlns:xlink="http://www.w3.org/1999/xlink">
<g><path style="opacity:0.837" fill="#472713" d="M 176.5,-0.5 C 192.833,-0.5 209.167,-0.5 225.5,-0.5C 268.167,6.83333 293.167,31.8333 300.5,74.5C 300.5,79.8333 300.5,85.1667 300.5,90.5C 294.471,129.702 272.138,154.202 233.5,164C 223.865,165.078 214.199,165.745 204.5,166C 191.62,166.626 179.953,170.626 169.5,178C 162.13,186.126 159.63,195.626 162,206.5C 162.768,210.137 163.934,213.637 165.5,217C 165.257,217.902 164.923,218.735 164.5,219.5C 109.833,219.5 55.1667,219.5 0.5,219.5C 0.5,218.833 0.166667,218.5 -0.5,218.5C -0.5,212.833 -0.5,207.167 -0.5,201.5C 1.36613,161.711 11.5328,124.044 30,88.5C 62.8492,32.9731 111.682,3.30647 176.5,-0.5 Z"/></g>
<g><path style="opacity:1" fill="#a1ebdd" d="M 160.5,214.5 C 108.336,215.499 56.0027,215.832 3.5,215.5C 3.5,211.167 3.5,206.833 3.5,202.5C 4.44462,149.823 20.9446,102.823 53,61.5C 83.4985,27.3338 121.665,8.16714 167.5,4C 188.5,3.33333 209.5,3.33333 230.5,4C 265.864,11.6972 287.698,33.1972 296,68.5C 300.17,110.259 283.337,139.759 245.5,157C 240.543,158.489 235.543,159.822 230.5,161C 214.957,160.99 199.624,162.656 184.5,166C 160.623,174.254 152.623,190.42 160.5,214.5 Z"/></g>
<g><path style="opacity:1" fill="#a1ebdd" d="M 3.5,202.5 C 3.5,206.833 3.5,211.167 3.5,215.5C 56.0027,215.832 108.336,215.499 160.5,214.5C 161.043,214.56 161.376,214.893 161.5,215.5C 108.504,216.5 55.5042,216.833 2.5,216.5C 2.18054,211.637 2.51388,206.97 3.5,202.5 Z"/></g>
</svg>

<svg x="360" y="341" xmlns="http://www.w3.org/2000/svg" version="1.1" width="279px" height="189px" style="shape-rendering:geometricPrecision; text-rendering:geometricPrecision; image-rendering:optimizeQuality; fill-rule:evenodd; clip-rule:evenodd" xmlns:xlink="http://www.w3.org/1999/xlink">
<g><path style="opacity:0.532" fill="#41210a" d="M 166.5,0.5 C 167.324,4.31227 167.824,8.31227 168,12.5C 172.015,8.31786 176.182,4.31786 180.5,0.5C 181.327,4.45922 181.827,8.45922 182,12.5C 186.015,8.31786 190.182,4.31786 194.5,0.5C 195.325,4.12236 195.825,7.78902 196,11.5C 199.5,8 203,4.5 206.5,1C 207.448,0.517215 208.448,0.350549 209.5,0.5C 209.335,4.18174 209.501,7.84841 210,11.5C 213.5,8 217,4.5 220.5,1C 221.5,0.333333 222.5,0.333333 223.5,1C 218.652,6.01515 213.652,10.8485 208.5,15.5C 207.675,11.8776 207.175,8.21098 207,4.5C 203.5,8 200,11.5 196.5,15C 195.552,15.4828 194.552,15.6495 193.5,15.5C 193.665,11.8183 193.499,8.15159 193,4.5C 189.5,8 186,11.5 182.5,15C 181.552,15.4828 180.552,15.6495 179.5,15.5C 179.665,11.8183 179.499,8.15159 179,4.5C 175.318,8.34898 171.485,12.0156 167.5,15.5C 166.506,10.544 166.173,5.54396 166.5,0.5 Z"/></g>
<g><path style="opacity:0.515" fill="#41210a" d="M 74.5,7.5 C 87.9194,6.17969 100.586,8.51302 112.5,14.5C 112,14.8333 111.5,15.1667 111,15.5C 92.9879,7.50121 74.9879,7.50121 57,15.5C 56.5,15.1667 56,14.8333 55.5,14.5C 61.5523,11.152 67.8856,8.81868 74.5,7.5 Z"/></g>
<g><path style="opacity:0.489" fill="#42220d" d="M 55.5,21.5 C 74.326,20.503 93.326,20.1697 112.5,20.5C 112.5,39.1667 112.5,57.8333 112.5,76.5C 112.5,76.8333 112.5,77.1667 112.5,77.5C 111.503,95.9925 111.17,114.659 111.5,133.5C 110.503,115.341 110.17,97.0076 110.5,78.5C 92.8333,78.5 75.1667,78.5 57.5,78.5C 57.8302,97.0076 57.4968,115.341 56.5,133.5C 56.5,114.833 56.5,96.1667 56.5,77.5C 65.6822,77.8266 74.6822,77.4933 83.5,76.5C 83.5,58.5 83.5,40.5 83.5,22.5C 74.3483,21.5064 65.015,21.1731 55.5,21.5 Z"/></g>
<g><path style="opacity:0.69" fill="#462811" d="M 223.5,76.5 C 223.5,76.8333 223.5,77.1667 223.5,77.5C 222.833,77.8333 222.167,78.1667 221.5,78.5C 203.5,78.5 185.5,78.5 167.5,78.5C 167.5,96.5 167.5,114.5 167.5,132.5C 166.833,132.5 166.5,132.167 166.5,131.5C 166.5,113.5 166.5,95.5 166.5,77.5C 148.5,77.5 130.5,77.5 112.5,77.5C 112.5,77.1667 112.5,76.8333 112.5,76.5C 130.5,76.5 148.5,76.5 166.5,76.5C 166.5,57.8333 166.5,39.1667 166.5,20.5C 185.5,20.5 204.5,20.5 223.5,20.5C 223.5,39.1667 223.5,57.8333 223.5,76.5 Z"/></g>
<g><path style="opacity:0.878" fill="#624631" d="M 55.5,21.5 C 65.015,21.1731 74.3483,21.5064 83.5,22.5C 74.5,22.5 65.5,22.5 56.5,22.5C 56.5,40.5 56.5,58.5 56.5,76.5C 65.5,76.5 74.5,76.5 83.5,76.5C 74.6822,77.4933 65.6822,77.8266 56.5,77.5C 56.5,96.1667 56.5,114.833 56.5,133.5C 45.495,133.667 34.495,133.5 23.5,133C 9.63776,129.312 1.63776,120.478 -0.5,106.5C -0.5,105.5 -0.5,104.5 -0.5,103.5C 0.797624,89.7762 8.13096,80.9428 21.5,77C 32.8284,76.5001 44.1618,76.3335 55.5,76.5C 55.5,58.1667 55.5,39.8333 55.5,21.5 Z"/></g>
<g><path style="opacity:1" fill="#a1ebdd" d="M 83.5,22.5 C 83.5,40.5 83.5,58.5 83.5,76.5C 74.5,76.5 65.5,76.5 56.5,76.5C 56.5,58.5 56.5,40.5 56.5,22.5C 65.5,22.5 74.5,22.5 83.5,22.5 Z"/></g>
<g><path style="opacity:1" fill="#412917" d="M 84.5,22.5 C 93.1667,22.5 101.833,22.5 110.5,22.5C 110.5,40.5 110.5,58.5 110.5,76.5C 101.833,76.5 93.1667,76.5 84.5,76.5C 84.5,58.5 84.5,40.5 84.5,22.5 Z"/></g>
<g><path style="opacity:1" fill="#f6f2d6" d="M 167.5,22.5 C 176.5,22.5 185.5,22.5 194.5,22.5C 194.5,40.5 194.5,58.5 194.5,76.5C 185.5,76.5 176.5,76.5 167.5,76.5C 167.5,58.5 167.5,40.5 167.5,22.5 Z"/></g>
<g><path style="opacity:1" fill="#412917" d="M 195.5,22.5 C 204.167,22.5 212.833,22.5 221.5,22.5C 221.5,40.5 221.5,58.5 221.5,76.5C 212.833,76.5 204.167,76.5 195.5,76.5C 195.5,58.5 195.5,40.5 195.5,22.5 Z"/></g>
<g><path style="opacity:0.563" fill="#694e3c" d="M 223.5,76.5 C 235.909,76.0606 248.242,76.5606 260.5,78C 269.608,82.264 275.608,89.0974 278.5,98.5C 278.5,102.833 278.5,107.167 278.5,111.5C 275.539,121.301 269.205,128.134 259.5,132C 246.894,133.42 234.228,133.92 221.5,133.5C 221.5,115.167 221.5,96.8333 221.5,78.5C 222.167,78.1667 222.833,77.8333 223.5,77.5C 223.5,77.1667 223.5,76.8333 223.5,76.5 Z"/></g>
<g><path style="opacity:1" fill="#a1ebdd" d="M 23.5,77.5 C 34.1667,77.5 44.8333,77.5 55.5,77.5C 55.5,95.5 55.5,113.5 55.5,131.5C 43.8286,131.667 32.1619,131.5 20.5,131C 1.73829,122.049 -3.09505,108.215 6,89.5C 10.5048,83.3482 16.3381,79.3482 23.5,77.5 Z"/></g>
<g><path style="opacity:1" fill="#81e37c" d="M 112.5,77.5 C 130.5,77.5 148.5,77.5 166.5,77.5C 166.5,95.5 166.5,113.5 166.5,131.5C 148.5,131.5 130.5,131.5 112.5,131.5C 112.5,113.5 112.5,95.5 112.5,77.5 Z"/></g>
<g><path style="opacity:1" fill="#a1ebdd" d="M 223.5,77.5 C 233.506,77.3335 243.506,77.5002 253.5,78C 270.752,82.0002 278.586,92.8336 277,110.5C 274.653,119.71 269.153,126.21 260.5,130C 248.228,131.418 235.895,131.918 223.5,131.5C 223.5,113.5 223.5,95.5 223.5,77.5 Z"/></g>
<g><path style="opacity:1" fill="#80de7a" d="M 145.5,92.5 C 145.973,93.9063 146.973,94.573 148.5,94.5C 150.805,97.4075 152.138,100.741 152.5,104.5C 143.833,104.5 135.167,104.5 126.5,104.5C 126.818,100.199 128.485,96.5322 131.5,93.5C 136.048,91.4081 140.714,91.0748 145.5,92.5 Z"/></g>
<g><path style="opacity:1" fill="#504721" d="M 145.5,92.5 C 140.714,91.0748 136.048,91.4081 131.5,93.5C 133.332,91.1058 135.832,90.1058 139,90.5C 141.544,90.336 143.71,91.0027 145.5,92.5 Z"/></g>
<g><path style="opacity:1" fill="#514c23" d="M 145.5,92.5 C 147.027,92.427 148.027,93.0937 148.5,94.5C 146.973,94.573 145.973,93.9063 145.5,92.5 Z"/></g>
<g><path style="opacity:1" fill="#535328" d="M 131.5,93.5 C 128.485,96.5322 126.818,100.199 126.5,104.5C 135.167,104.5 143.833,104.5 152.5,104.5C 152.138,100.741 150.805,97.4075 148.5,94.5C 150.453,95.6258 151.953,97.2925 153,99.5C 153.667,102.833 153.667,106.167 153,109.5C 152.722,110.416 152.222,111.082 151.5,111.5C 151.833,109.5 152.167,107.5 152.5,105.5C 143.833,105.5 135.167,105.5 126.5,105.5C 126.387,108.049 127.054,110.382 128.5,112.5C 128.154,113.696 127.654,113.696 127,112.5C 124.167,108.006 123.834,103.339 126,98.5C 127.076,95.921 128.909,94.2543 131.5,93.5 Z"/></g>
<g><path style="opacity:1" fill="#5a6734" d="M 151.5,111.5 C 148.149,117.908 142.816,120.408 135.5,119C 133.668,118.252 132.001,117.252 130.5,116C 134.978,117.378 139.644,117.711 144.5,117C 146.996,115.334 149.329,113.5 151.5,111.5 Z"/></g>
<g><path style="opacity:0.627" fill="#596432" d="M 112.5,77.5 C 112.5,95.5 112.5,113.5 112.5,131.5C 130.5,131.5 148.5,131.5 166.5,131.5C 166.5,132.167 166.833,132.5 167.5,132.5C 149.007,133.497 130.341,133.83 111.5,133.5C 111.17,114.659 111.503,95.9925 112.5,77.5 Z"/></g>
<g><path style="opacity:0.816" fill="#4d2318" d="M 146.5,188.5 C 141.833,188.5 137.167,188.5 132.5,188.5C 122.708,185.547 115.874,179.214 112,169.5C 111.03,162.19 110.197,154.857 109.5,147.5C 101.059,145.22 97.0592,139.887 97.5,131.5C 98.729,137.307 101.896,141.641 107,144.5C 128.136,145.65 149.302,145.817 170.5,145C 176.704,142.629 180.038,138.129 180.5,131.5C 181.457,140.895 177.124,146.229 167.5,147.5C 171.605,167.343 164.605,181.009 146.5,188.5 Z"/></g>
<g><path style="opacity:1" fill="#e741b9" d="M 112.5,146.5 C 130.5,146.5 148.5,146.5 166.5,146.5C 167.572,156.619 166.072,166.286 162,175.5C 151.504,188.225 139.004,190.725 124.5,183C 118.725,178.886 114.892,173.386 113,166.5C 112.5,159.842 112.334,153.175 112.5,146.5 Z"/></g>
</svg>

<svg x="500" y="777" xmlns="http://www.w3.org/2000/svg" version="1.1" width="193px" height="193px" style="shape-rendering:geometricPrecision; text-rendering:geometricPrecision; image-rendering:optimizeQuality; fill-rule:evenodd; clip-rule:evenodd" xmlns:xlink="http://www.w3.org/1999/xlink">
<g><path style="opacity:0.901" fill="#422210" d="M 88.5,-0.5 C 89.8333,-0.5 91.1667,-0.5 92.5,-0.5C 95.0897,1.00127 96.423,3.33461 96.5,6.5C 93.7081,16.663 92.8748,26.9964 94,37.5C 95.091,50.5826 101.924,58.7492 114.5,62C 131.5,62.3333 148.5,62.6667 165.5,63C 180.142,68.761 186.808,79.5944 185.5,95.5C 185.468,99.5517 185.135,103.552 184.5,107.5C 187.917,108.617 190.584,110.617 192.5,113.5C 192.5,120.167 192.5,126.833 192.5,133.5C 191.146,135.696 189.146,137.196 186.5,138C 177.173,138.5 167.839,138.666 158.5,138.5C 158.8,146.223 158.467,153.89 157.5,161.5C 164.883,164.263 167.549,169.597 165.5,177.5C 165.333,180.833 165.167,184.167 165,187.5C 163.648,189.749 161.815,191.416 159.5,192.5C 143.833,192.5 128.167,192.5 112.5,192.5C 106.006,188.196 99.3396,184.03 92.5,180C 78.504,179.5 64.504,179.333 50.5,179.5C 50.7693,183.931 50.436,188.265 49.5,192.5C 34.8333,192.5 20.1667,192.5 5.5,192.5C 3.27224,191.623 1.27224,190.29 -0.5,188.5C -0.5,180.833 -0.5,173.167 -0.5,165.5C 1.46052,163.688 3.79385,162.688 6.5,162.5C 5.39721,150.867 5.23054,139.2 6,127.5C 7.69077,113.401 10.0241,99.401 13,85.5C 13.4988,81.5138 13.6655,77.5138 13.5,73.5C 7.28173,73.3951 2.61506,70.7284 -0.5,65.5C -0.5,62.5 -0.5,59.5 -0.5,56.5C 1.62304,54.0787 3.95637,53.9121 6.5,56C 10.2162,60.0482 13.5496,64.3815 16.5,69C 22.1569,69.4994 27.8236,69.6661 33.5,69.5C 35.341,56.7968 37.5077,44.1301 40,31.5C 40.4988,27.5138 40.6655,23.5138 40.5,19.5C 29.8254,18.6645 25.3254,12.9979 27,2.5C 27.7387,1.42575 28.7387,0.759083 30,0.5C 32.8792,1.37576 35.2125,3.04243 37,5.5C 39.2902,8.57989 41.4569,11.7466 43.5,15C 56.8292,15.4999 70.1625,15.6666 83.5,15.5C 84.0804,11.8581 84.5804,8.19139 85,4.5C 85.2572,2.09347 86.4238,0.426808 88.5,-0.5 Z"/></g>
<g><path style="opacity:1" fill="#a1ebdd" d="M 88.5,3.5 C 91.2605,2.91465 92.9272,3.91465 93.5,6.5C 91.9741,9.65382 91.3075,12.9872 91.5,16.5C 90.1667,16.5 88.8333,16.5 87.5,16.5C 87.3718,12.1186 87.7051,7.78529 88.5,3.5 Z"/></g>
<g><path style="opacity:1" fill="#a1ebdd" d="M 29.5,4.5 C 31.371,4.85883 32.871,5.85883 34,7.5C 42.0872,17.3497 41.0872,18.683 31,11.5C 29.7978,9.32253 29.2978,6.9892 29.5,4.5 Z"/></g>
<g><path style="opacity:1" fill="#258906" d="M 90.5,19.5 C 75.1667,19.5 59.8333,19.5 44.5,19.5C 44.7947,21.7354 44.4614,23.7354 43.5,25.5C 43.5,23.1667 43.5,20.8333 43.5,18.5C 59.3422,18.1704 75.0089,18.5037 90.5,19.5 Z"/></g>
<g><path style="opacity:1" fill="#b7c9de" d="M 90.5,19.5 C 90.6641,22.1873 90.4974,24.854 90,27.5C 86.0394,32.5949 82.2061,37.7616 78.5,43C 78.8499,44.2575 79.5165,44.5908 80.5,44C 83.6667,40.1667 86.8333,36.3333 90,32.5C 90.6667,34.5 90.6667,36.5 90,38.5C 86.0394,43.5949 82.2061,48.7616 78.5,54C 78.8499,55.2575 79.5165,55.5908 80.5,55C 84,50.8333 87.5,46.6667 91,42.5C 94.2085,55.5443 102.375,63.211 115.5,65.5C 118.287,66.4767 121.287,66.81 124.5,66.5C 124.5,72.8333 124.5,79.1667 124.5,85.5C 116.493,85.3336 108.493,85.5003 100.5,86C 89.4086,89.9257 83.4086,97.7591 82.5,109.5C 79.4816,109.665 76.4816,109.498 73.5,109C 70.3938,105.368 68.2271,101.201 67,96.5C 66.2888,83.0943 66.6221,69.761 68,56.5C 65,53.8333 62,53.8333 59,56.5C 58.006,61.118 57.506,65.7847 57.5,70.5C 50.5,70.5 43.5,70.5 36.5,70.5C 39.4622,55.6081 41.7955,40.6081 43.5,25.5C 44.4614,23.7354 44.7947,21.7354 44.5,19.5C 59.8333,19.5 75.1667,19.5 90.5,19.5 Z"/></g>
<g><path style="opacity:1" fill="#a1ebdd" d="M 61.5,57.5 C 64.2605,56.9147 65.9272,57.9147 66.5,60.5C 64.9741,63.6538 64.3075,66.9872 64.5,70.5C 63.1667,70.5 61.8333,70.5 60.5,70.5C 60.3718,66.1186 60.7051,61.7853 61.5,57.5 Z"/></g>
<g><path style="opacity:1" fill="#a1ebdd" d="M 2.5,58.5 C 4.37099,58.8588 5.87099,59.8588 7,61.5C 15.0872,71.3497 14.0872,72.683 4,65.5C 2.79777,63.3225 2.29777,60.9892 2.5,58.5 Z"/></g>
<g><path style="opacity:1" fill="#1ca504" d="M 115.5,65.5 C 118.833,65.5 122.167,65.5 125.5,65.5C 125.824,72.3543 125.491,79.021 124.5,85.5C 124.5,79.1667 124.5,72.8333 124.5,66.5C 121.287,66.81 118.287,66.4767 115.5,65.5 Z"/></g>
<g><path style="opacity:1" fill="#a1ebdd" d="M 177.5,108.5 C 147.167,108.5 116.833,108.5 86.5,108.5C 86.5,107.5 86.5,106.5 86.5,105.5C 87.6688,98.162 91.6688,92.9953 98.5,90C 108.42,88.5766 118.42,88.0766 128.5,88.5C 128.5,80.8333 128.5,73.1667 128.5,65.5C 140.171,65.3335 151.838,65.5001 163.5,66C 173.434,68.9334 179.6,75.4334 182,85.5C 182.667,91.8333 182.667,98.1667 182,104.5C 181.252,106.751 179.752,108.084 177.5,108.5 Z"/></g>
<g><path style="opacity:1" fill="#4c200a" d="M 158.5,69.5 C 169.585,70.8958 174.918,77.0625 174.5,88C 172.909,82.9078 169.909,78.2411 165.5,74C 163.212,73.1779 160.878,72.5112 158.5,72C 157.402,71.2303 157.402,70.397 158.5,69.5 Z"/></g>
<g><path style="opacity:1" fill="#258906" d="M 63.5,73.5 C 48.1667,73.5 32.8333,73.5 17.5,73.5C 17.7947,75.7354 17.4614,77.7354 16.5,79.5C 16.5,77.1667 16.5,74.8333 16.5,72.5C 32.3422,72.1704 48.0089,72.5037 63.5,73.5 Z"/></g>
<g><path style="opacity:1" fill="#b7c9de" d="M 63.5,73.5 C 63.6641,76.1873 63.4974,78.854 63,81.5C 59.0394,86.5949 55.2061,91.7616 51.5,97C 51.8499,98.2575 52.5165,98.5908 53.5,98C 56.6667,94.1667 59.8333,90.3333 63,86.5C 63.6667,88.5 63.6667,90.5 63,92.5C 59.0394,97.5949 55.2061,102.762 51.5,108C 51.8499,109.257 52.5165,109.591 53.5,109C 57,104.833 60.5,100.667 64,96.5C 67.2085,109.544 75.3751,117.211 88.5,119.5C 91.2869,120.477 94.2869,120.81 97.5,120.5C 97.5,126.833 97.5,133.167 97.5,139.5C 89.8261,139.334 82.1594,139.5 74.5,140C 63.0408,143.457 56.7074,151.124 55.5,163C 40.7399,163.966 26.0733,163.633 11.5,162C 11,161.5 10.5,161 10,160.5C 9.33333,146.167 9.33333,131.833 10,117.5C 13.5145,105.066 15.6812,92.3988 16.5,79.5C 17.4614,77.7354 17.7947,75.7354 17.5,73.5C 32.8333,73.5 48.1667,73.5 63.5,73.5 Z"/></g>
<g><path style="opacity:1" fill="#a1ebdd" d="M 86.5,105.5 C 86.5,106.5 86.5,107.5 86.5,108.5C 116.833,108.5 147.167,108.5 177.5,108.5C 147.005,109.498 116.338,109.831 85.5,109.5C 85.2322,107.901 85.5655,106.568 86.5,105.5 Z"/></g>
<g><path style="opacity:1" fill="#32184a" d="M 185.5,112.5 C 149.663,112.168 113.996,112.502 78.5,113.5C 77.7109,113.217 77.0442,112.717 76.5,112C 113.002,111.169 149.336,111.336 185.5,112.5 Z"/></g>
<g><path style="opacity:1" fill="#0401fa" d="M 78.5,113.5 C 113.996,112.502 149.663,112.168 185.5,112.5C 186.496,112.414 187.329,112.748 188,113.5C 188.667,120.167 188.667,126.833 188,133.5C 186.933,134.191 185.766,134.691 184.5,135C 175.149,135.832 165.816,135.665 156.5,134.5C 152.664,124.828 145.664,118.995 135.5,117C 118.5,116.667 101.5,116.333 84.5,116C 82.3594,115.427 80.3594,114.594 78.5,113.5 Z"/></g>
<g><path style="opacity:1" fill="#11c603" d="M 88.5,119.5 C 91.8333,119.5 95.1667,119.5 98.5,119.5C 98.824,126.354 98.4907,133.021 97.5,139.5C 97.5,133.167 97.5,126.833 97.5,120.5C 94.2869,120.81 91.2869,120.477 88.5,119.5 Z"/></g>
<g><path style="opacity:1" fill="#a1ebdd" d="M 101.5,119.5 C 113.171,119.333 124.838,119.5 136.5,120C 146.434,122.933 152.6,129.433 155,139.5C 155.924,146.608 155.591,153.608 154,160.5C 153.097,161.701 151.931,162.535 150.5,163C 120.168,163.5 89.8352,163.667 59.5,163.5C 60.1034,152.456 65.77,145.623 76.5,143C 84.8267,142.5 93.16,142.334 101.5,142.5C 101.5,134.833 101.5,127.167 101.5,119.5 Z"/></g>
<g><path style="opacity:1" fill="#4c200a" d="M 131.5,123.5 C 142.585,124.896 147.918,131.062 147.5,142C 145.909,136.908 142.909,132.241 138.5,128C 136.212,127.178 133.878,126.511 131.5,126C 130.402,125.23 130.402,124.397 131.5,123.5 Z"/></g>
<g><path style="opacity:1" fill="#b7c9de" d="M 3.5,166.5 C 55.8344,166.333 108.168,166.5 160.5,167C 161.645,173.752 161.811,180.586 161,187.5C 159.933,188.191 158.766,188.691 157.5,189C 143.5,189.667 129.5,189.667 115.5,189C 109.924,188.437 105.591,185.77 102.5,181C 100.112,179.139 97.4456,177.806 94.5,177C 78.8333,176.333 63.1667,176.333 47.5,177C 46.5363,181.066 46.203,185.233 46.5,189.5C 32.4021,189.965 18.4021,189.465 4.5,188C 4,187.5 3.5,187 3,186.5C 2.20754,179.753 2.37421,173.086 3.5,166.5 Z"/></g>
</svg>
</svg>