<svg xmlns="http://www.w3.org/2000/svg" width="1000" height="1350" version="1.1">
<rect id="card_background" fill="#ccc" x="0" y="0" width="1000" height="1350" />
  <rect id="character_background" fill="#eee" x="20" y="20" width="960" height="1150" rx="8" />
  <text x="20" y="1225" font-family="serif" font-size="40px" fill="#faf4b9" stroke="#000000">Worthy of love NFT</text>
  <text x="20" y="1275" font-family="serif" font-size="40px" fill="#faf4b9" stroke="#000000">Worker Boon</text>
  <text x="20" y="1325" font-family="serif" font-size="40px" fill="#faf4b9" stroke="#000000">Rarity class: 1</text>

<svg x="282" y="750" xmlns="http://www.w3.org/2000/svg" version="1.1" width="436px" height="220px" style="shape-rendering:geometricPrecision; text-rendering:geometricPrecision; image-rendering:optimizeQuality; fill-rule:evenodd; clip-rule:evenodd" xmlns:xlink="http://www.w3.org/1999/xlink">
<g><path style="opacity:0.838" fill="#43220d" d="M 0.5,-0.5 C 145.167,-0.5 289.833,-0.5 434.5,-0.5C 434.5,0.166667 434.833,0.5 435.5,0.5C 435.5,1.5 435.5,2.5 435.5,3.5C 417.406,47.536 399.406,91.7027 381.5,136C 399.399,162.985 417.399,189.818 435.5,216.5C 435.5,217.167 435.5,217.833 435.5,218.5C 434.833,218.5 434.5,218.833 434.5,219.5C 289.833,219.5 145.167,219.5 0.5,219.5C 0.5,218.833 0.166667,218.5 -0.5,218.5C -0.5,217.833 -0.5,217.167 -0.5,216.5C 17.6007,189.818 35.6007,162.985 53.5,136C 35.594,91.7027 17.594,47.536 -0.5,3.5C -0.5,2.5 -0.5,1.5 -0.5,0.5C 0.166667,0.5 0.5,0.166667 0.5,-0.5 Z"/></g>
<g><path style="opacity:1" fill="#faf4b9" d="M 430.5,4.5 C 288.5,3.16667 146.5,3.16667 4.5,4.5C 3.95691,4.44001 3.62358,4.10667 3.5,3.5C 146.167,2.16667 288.833,2.16667 431.5,3.5C 431.376,4.10667 431.043,4.44001 430.5,4.5 Z"/></g>
<g><path style="opacity:1" fill="#faf4b9" d="M 430.5,4.5 C 413.072,48.2835 395.738,92.1168 378.5,136C 395.271,162.28 412.271,188.446 429.5,214.5C 288.167,215.833 146.833,215.833 5.5,214.5C 22.7291,188.446 39.7291,162.28 56.5,136C 39.2618,92.1168 21.9285,48.2835 4.5,4.5C 146.5,3.16667 288.5,3.16667 430.5,4.5 Z"/></g>
<g><path style="opacity:1" fill="#faf4b9" d="M 5.5,214.5 C 146.833,215.833 288.167,215.833 429.5,214.5C 430.043,214.56 430.376,214.893 430.5,215.5C 288.5,216.833 146.5,216.833 4.5,215.5C 4.62358,214.893 4.95691,214.56 5.5,214.5 Z"/></g>
</svg>

<svg x="282" y="534" xmlns="http://www.w3.org/2000/svg" version="1.1" width="436px" height="220px" style="shape-rendering:geometricPrecision; text-rendering:geometricPrecision; image-rendering:optimizeQuality; fill-rule:evenodd; clip-rule:evenodd" xmlns:xlink="http://www.w3.org/1999/xlink">
<g><path style="opacity:0.879" fill="#45240f" d="M 0.5,-0.5 C 145.167,-0.5 289.833,-0.5 434.5,-0.5C 434.5,0.166667 434.833,0.5 435.5,0.5C 435.5,73.1667 435.5,145.833 435.5,218.5C 434.833,218.5 434.5,218.833 434.5,219.5C 289.833,219.5 145.167,219.5 0.5,219.5C 0.5,218.833 0.166667,218.5 -0.5,218.5C -0.5,145.833 -0.5,73.1667 -0.5,0.5C 0.166667,0.5 0.5,0.166667 0.5,-0.5 Z"/></g>
<g><path style="opacity:1" fill="#ff5b93" d="M 108.5,3.5 C 144.711,29.4389 180.378,56.1056 215.5,83.5C 215.5,127.5 215.5,171.5 215.5,215.5C 144.833,215.5 74.1667,215.5 3.5,215.5C 3.5,144.833 3.5,74.1667 3.5,3.5C 38.5,3.5 73.5,3.5 108.5,3.5 Z"/></g>
<g><path style="opacity:1" fill="#ff5b93" d="M 115.5,3.5 C 148.833,3.5 182.167,3.5 215.5,3.5C 215.831,28.6722 215.498,53.6722 214.5,78.5C 181.321,53.7429 148.321,28.7429 115.5,3.5 Z"/></g>
<g><path style="opacity:1" fill="#ff5b93" d="M 214.5,78.5 C 215.498,53.6722 215.831,28.6722 215.5,3.5C 182.167,3.5 148.833,3.5 115.5,3.5C 148.427,2.50057 182.093,2.16723 216.5,2.5C 216.833,28.1753 216.5,53.842 215.5,79.5C 214.893,79.3764 214.56,79.0431 214.5,78.5 Z"/></g>
<g><path style="opacity:1" fill="#ff5b93" d="M 222.5,4.5 C 246.994,3.50232 271.661,3.16899 296.5,3.5C 296.831,28.339 296.498,53.0056 295.5,77.5C 271.5,52.8333 247.167,28.5 222.5,4.5 Z"/></g>
<g><path style="opacity:1" fill="#ff5b93" d="M 295.5,77.5 C 296.498,53.0056 296.831,28.339 296.5,3.5C 271.661,3.16899 246.994,3.50232 222.5,4.5C 221.957,4.44001 221.624,4.10667 221.5,3.5C 246.825,2.50023 272.158,2.1669 297.5,2.5C 297.833,27.8421 297.5,53.1754 296.5,78.5C 295.893,78.3764 295.56,78.0431 295.5,77.5 Z"/></g>
<g><path style="opacity:1" fill="#ff5b93" d="M 219.5,82.5 C 219.169,56.9945 219.502,31.6612 220.5,6.5C 245.632,32.132 270.965,57.632 296.5,83C 297.749,83.7401 298.749,83.5735 299.5,82.5C 300.498,56.3386 300.831,30.0053 300.5,3.5C 344.167,3.5 387.833,3.5 431.5,3.5C 431.5,74.1667 431.5,144.833 431.5,215.5C 360.833,215.5 290.167,215.5 219.5,215.5C 219.5,171.167 219.5,126.833 219.5,82.5 Z"/></g>
<g><path style="opacity:1" fill="#ff5b93" d="M 218.5,82.5 C 218.833,82.5 219.167,82.5 219.5,82.5C 219.5,126.833 219.5,171.167 219.5,215.5C 290.167,215.5 360.833,215.5 431.5,215.5C 431.5,144.833 431.5,74.1667 431.5,3.5C 387.833,3.5 344.167,3.5 300.5,3.5C 300.831,30.0053 300.498,56.3386 299.5,82.5C 299.5,55.8333 299.5,29.1667 299.5,2.5C 343.833,2.5 388.167,2.5 432.5,2.5C 432.5,73.8333 432.5,145.167 432.5,216.5C 361.167,216.5 289.833,216.5 218.5,216.5C 218.5,171.833 218.5,127.167 218.5,82.5 Z"/></g>
<g><path style="opacity:1" fill="#715848" d="M 220.5,6.5 C 219.502,31.6612 219.169,56.9945 219.5,82.5C 219.167,82.5 218.833,82.5 218.5,82.5C 218.167,56.8247 218.5,31.158 219.5,5.5C 220.107,5.62358 220.44,5.95691 220.5,6.5 Z"/></g>
<g><path style="opacity:1" fill="#492814" d="M 297.5,108.5 C 325.167,108.5 352.833,108.5 380.5,108.5C 380.667,125.503 380.5,142.503 380,159.5C 371.635,184.11 354.468,194.61 328.5,191C 312.569,186.069 302.402,175.569 298,159.5C 297.5,142.503 297.333,125.503 297.5,108.5 Z"/></g>
<g><path style="opacity:1" fill="#ff5b93" d="M 377.5,153.5 C 377.5,139.5 377.5,125.5 377.5,111.5C 351.833,111.5 326.167,111.5 300.5,111.5C 300.5,125.5 300.5,139.5 300.5,153.5C 299.504,139.343 299.171,125.01 299.5,110.5C 325.833,110.5 352.167,110.5 378.5,110.5C 378.829,125.01 378.496,139.343 377.5,153.5 Z"/></g>
<g><path style="opacity:1" fill="#ff5b93" d="M 377.5,153.5 C 376.12,167.764 369.12,178.264 356.5,185C 334.054,193.518 316.554,187.685 304,167.5C 301.925,163.03 300.758,158.364 300.5,153.5C 300.5,139.5 300.5,125.5 300.5,111.5C 326.167,111.5 351.833,111.5 377.5,111.5C 377.5,125.5 377.5,139.5 377.5,153.5 Z"/></g>
<g><path style="opacity:1" fill="#ff5b93" d="M 108.5,3.5 C 73.5,3.5 38.5,3.5 3.5,3.5C 3.5,74.1667 3.5,144.833 3.5,215.5C 74.1667,215.5 144.833,215.5 215.5,215.5C 215.5,171.5 215.5,127.5 215.5,83.5C 216.499,127.664 216.832,171.997 216.5,216.5C 145.167,216.5 73.8333,216.5 2.5,216.5C 2.5,145.167 2.5,73.8333 2.5,2.5C 38.0039,2.16827 73.3373,2.50161 108.5,3.5 Z"/></g>
</svg>

<svg x="336" y="318" xmlns="http://www.w3.org/2000/svg" version="1.1" width="328px" height="220px" style="shape-rendering:geometricPrecision; text-rendering:geometricPrecision; image-rendering:optimizeQuality; fill-rule:evenodd; clip-rule:evenodd" xmlns:xlink="http://www.w3.org/1999/xlink">
<g><path style="opacity:0.836" fill="#462511" d="M 48.5,-0.5 C 125.167,-0.5 201.833,-0.5 278.5,-0.5C 305.833,4.83333 322.167,21.1667 327.5,48.5C 327.5,52.5 327.5,56.5 327.5,60.5C 324.889,70.1206 319.223,77.4539 310.5,82.5C 319.223,87.5461 324.889,94.8794 327.5,104.5C 327.5,107.833 327.5,111.167 327.5,114.5C 324.889,124.121 319.223,131.454 310.5,136.5C 319.223,141.546 324.889,148.879 327.5,158.5C 327.5,162.5 327.5,166.5 327.5,170.5C 322.167,197.833 305.833,214.167 278.5,219.5C 201.833,219.5 125.167,219.5 48.5,219.5C 21.1667,214.167 4.83333,197.833 -0.5,170.5C -0.5,166.5 -0.5,162.5 -0.5,158.5C 2.11078,148.879 7.77745,141.546 16.5,136.5C 7.77745,131.454 2.11078,124.121 -0.5,114.5C -0.5,111.167 -0.5,107.833 -0.5,104.5C 2.11078,94.8794 7.77745,87.5461 16.5,82.5C 7.77745,77.4539 2.11078,70.1206 -0.5,60.5C -0.5,56.5 -0.5,52.5 -0.5,48.5C 4.83333,21.1667 21.1667,4.83333 48.5,-0.5 Z"/></g>
<g><path style="opacity:1" fill="#b7c9de" d="M 49.5,2.5 C 125.501,2.33334 201.501,2.5 277.5,3C 301.376,7.34442 316.543,21.1778 323,44.5C 326.814,59.8331 321.981,71.3331 308.5,79C 304.914,80.1076 301.247,80.6076 297.5,80.5C 297.5,81.8333 297.5,83.1667 297.5,84.5C 309.831,84.3189 318.331,89.9856 323,101.5C 326.116,115.763 321.282,126.263 308.5,133C 304.914,134.108 301.247,134.608 297.5,134.5C 297.5,135.833 297.5,137.167 297.5,138.5C 309.831,138.319 318.331,143.986 323,155.5C 324.957,188.543 309.79,208.71 277.5,216C 201.5,216.667 125.5,216.667 49.5,216C 17.2099,208.71 2.04324,188.543 4,155.5C 8.92892,144.408 17.4289,138.075 29.5,136.5C 6.24713,131.321 -1.25287,117.654 7,95.5C 12.7699,88.1976 20.2699,83.8642 29.5,82.5C 8.47749,78.301 -0.0225095,65.6344 4,44.5C 10.6979,21.2481 25.8645,7.24814 49.5,2.5 Z"/></g>
</svg>

<svg x="417" y="183" xmlns="http://www.w3.org/2000/svg" version="1.1" width="166px" height="139px" style="shape-rendering:geometricPrecision; text-rendering:geometricPrecision; image-rendering:optimizeQuality; fill-rule:evenodd; clip-rule:evenodd" xmlns:xlink="http://www.w3.org/1999/xlink">
<g><path style="opacity:0.836" fill="#43220c" d="M 28.5,-0.5 C 64.5,-0.5 100.5,-0.5 136.5,-0.5C 151.833,3.5 161.5,13.1667 165.5,28.5C 165.5,55.5 165.5,82.5 165.5,109.5C 161.5,124.833 151.833,134.5 136.5,138.5C 100.5,138.5 64.5,138.5 28.5,138.5C 13.1667,134.5 3.5,124.833 -0.5,109.5C -0.5,82.5 -0.5,55.5 -0.5,28.5C 3.5,13.1667 13.1667,3.5 28.5,-0.5 Z"/></g>
<g><path style="opacity:1" fill="#e5cec1" d="M 29.5,2.5 C 64.8349,2.33335 100.168,2.50001 135.5,3C 149.667,6.5 158.5,15.3333 162,29.5C 162.667,55.8333 162.667,82.1667 162,108.5C 158.5,122.667 149.667,131.5 135.5,135C 100.167,135.667 64.8333,135.667 29.5,135C 15.3333,131.5 6.5,122.667 3,108.5C 2.33333,82.1667 2.33333,55.8333 3,29.5C 6.68204,15.3189 15.5154,6.31887 29.5,2.5 Z"/></g>
</svg>

<svg x="360" y="362" xmlns="http://www.w3.org/2000/svg" version="1.1" width="279px" height="168px" style="shape-rendering:geometricPrecision; text-rendering:geometricPrecision; image-rendering:optimizeQuality; fill-rule:evenodd; clip-rule:evenodd" xmlns:xlink="http://www.w3.org/1999/xlink">
<g><path style="opacity:0.863" fill="#604136" d="M 166.5,0.5 C 166.5,0.166667 166.5,-0.166667 166.5,-0.5C 185.167,-0.5 203.833,-0.5 222.5,-0.5C 214.833,0.166667 207.167,0.833333 199.5,1.5C 196.5,1.5 193.5,1.5 190.5,1.5C 182.684,0.507609 174.684,0.174275 166.5,0.5 Z"/></g>
<g><path style="opacity:1" fill="#f6f2d6" d="M 79.5,1.5 C 94.2205,-0.0612646 104.387,5.93874 110,19.5C 110.497,22.146 110.664,24.8127 110.5,27.5C 92.5,27.5 74.5,27.5 56.5,27.5C 57.862,13.1437 65.5286,4.47699 79.5,1.5 Z"/></g>
<g><path style="opacity:0.984" fill="#563623" d="M 55.5,0.5 C 55.5,0.166667 55.5,-0.166667 55.5,-0.5C 74.5,-0.5 93.5,-0.5 112.5,-0.5C 107.255,1.2923 101.588,2.12563 95.5,2C 106.273,7.03416 111.94,15.5342 112.5,27.5C 111.833,27.5 111.167,27.5 110.5,27.5C 110.664,24.8127 110.497,22.146 110,19.5C 104.387,5.93874 94.2205,-0.0612646 79.5,1.5C 71.6841,0.507609 63.6841,0.174275 55.5,0.5 Z"/></g>
<g><path style="opacity:0.924" fill="#472712" d="M 222.5,-0.5 C 222.833,-0.5 223.167,-0.5 223.5,-0.5C 218.255,1.2923 212.588,2.12563 206.5,2C 221.54,10.443 226.374,22.943 221,39.5C 213.101,54.364 200.935,59.5307 184.5,55C 170.088,48.012 164.255,36.512 167,20.5C 169.624,12.2086 174.791,6.04191 182.5,2C 176.984,1.82669 171.651,1.32669 166.5,0.5C 174.684,0.174275 182.684,0.507609 190.5,1.5C 176.464,4.53539 168.798,13.2021 167.5,27.5C 185.5,27.5 203.5,27.5 221.5,27.5C 220.351,13.6785 213.017,5.01186 199.5,1.5C 207.167,0.833333 214.833,0.166667 222.5,-0.5 Z"/></g>
<g><path style="opacity:1" fill="#a1ebdd" d="M 190.5,1.5 C 193.5,1.5 196.5,1.5 199.5,1.5C 213.017,5.01186 220.351,13.6785 221.5,27.5C 203.5,27.5 185.5,27.5 167.5,27.5C 168.798,13.2021 176.464,4.53539 190.5,1.5 Z"/></g>
<g><path style="opacity:1" fill="#422817" d="M 167.5,28.5 C 185.5,28.5 203.5,28.5 221.5,28.5C 220.232,45.1011 211.232,54.1011 194.5,55.5C 178.488,53.4882 169.488,44.4882 167.5,28.5 Z"/></g>
<g><path style="opacity:0.999" fill="#452510" d="M 55.5,0.5 C 63.6841,0.174275 71.6841,0.507609 79.5,1.5C 65.5286,4.47699 57.862,13.1437 56.5,27.5C 74.5,27.5 92.5,27.5 110.5,27.5C 111.167,27.5 111.833,27.5 112.5,27.5C 112.121,42.3776 104.788,51.8776 90.5,56C 74.9415,58.4715 63.7748,52.6382 57,38.5C 52.6396,22.566 57.473,10.3993 71.5,2C 65.9842,1.82669 60.6509,1.32669 55.5,0.5 Z"/></g>
<g><path style="opacity:1" fill="#422817" d="M 56.5,28.5 C 74.5,28.5 92.5,28.5 110.5,28.5C 109.251,45.0826 100.251,54.0826 83.5,55.5C 67.486,53.486 58.486,44.486 56.5,28.5 Z"/></g>
<g><path style="opacity:0.26" fill="#42210c" d="M 221.5,55.5 C 240.326,54.503 259.326,54.1697 278.5,54.5C 278.5,55.5 278.5,56.5 278.5,57.5C 277.833,57.8333 277.167,58.1667 276.5,58.5C 276.5,57.5 276.5,56.5 276.5,55.5C 258.659,55.1699 240.992,55.5033 223.5,56.5C 223.167,56.5 222.833,56.5 222.5,56.5C 222.5,55.8333 222.167,55.5 221.5,55.5 Z"/></g>
<g><path style="opacity:0.251" fill="#4d2d19" d="M 0.5,54.5 C 19.4097,54.174 38.243,54.5073 57,55.5C 57.9854,74.6497 57.6521,93.6497 56,112.5C 37.6667,94.1667 19.3333,75.8333 1,57.5C 0.517215,56.552 0.350549,55.552 0.5,54.5 Z"/></g>
<g><path style="opacity:1" fill="#a1ebdd" d="M 2.5,57.5 C 19.9921,56.5033 37.6588,56.1699 55.5,56.5C 55.6666,74.1698 55.4999,91.8365 55,109.5C 37.6319,91.9649 20.1319,74.6316 2.5,57.5 Z"/></g>
<g><path style="opacity:1" fill="#71b360" d="M 140.5,58.5 C 140.557,59.609 140.89,60.609 141.5,61.5C 140.504,77.6581 140.17,93.9915 140.5,110.5C 139.167,93.1667 139.167,75.8333 140.5,58.5 Z"/></g>
<g><path style="opacity:0.565" fill="#473114" d="M 140.5,58.5 C 140.833,58.5 141.167,58.5 141.5,58.5C 150.405,75.3096 159.072,92.3096 167.5,109.5C 166.833,109.5 166.167,109.5 165.5,109.5C 157.5,93.5 149.5,77.5 141.5,61.5C 140.89,60.609 140.557,59.609 140.5,58.5 Z"/></g>
<g><path style="opacity:1" fill="#81e27c" d="M 138.5,59.5 C 138.5,76.5 138.5,93.5 138.5,110.5C 129.833,110.5 121.167,110.5 112.5,110.5C 120.928,93.3096 129.595,76.3096 138.5,59.5 Z"/></g>
<g><path style="opacity:1" fill="#81e37c" d="M 141.5,61.5 C 149.5,77.5 157.5,93.5 165.5,109.5C 157.35,110.493 149.017,110.826 140.5,110.5C 140.17,93.9915 140.504,77.6581 141.5,61.5 Z"/></g>
<g><path style="opacity:0.704" fill="#473215" d="M 141.5,57.5 C 139.821,57.2852 138.821,57.9519 138.5,59.5C 129.595,76.3096 120.928,93.3096 112.5,110.5C 112.167,110.5 111.833,110.5 111.5,110.5C 120.384,91.7323 129.55,73.0657 139,54.5C 140.045,55.3734 140.878,56.3734 141.5,57.5 Z"/></g>
<g><path style="opacity:0.886" fill="#5e412e" d="M 221.5,55.5 C 222.167,55.5 222.5,55.8333 222.5,56.5C 222.167,74.1792 222.5,91.8459 223.5,109.5C 224.107,109.376 224.44,109.043 224.5,108.5C 241.298,91.2014 258.298,74.0348 275.5,57C 258.17,56.5001 240.837,56.3334 223.5,56.5C 240.992,55.5033 258.659,55.1699 276.5,55.5C 276.5,56.5 276.5,57.5 276.5,58.5C 258.84,76.9936 240.673,94.9936 222,112.5C 221.5,93.5029 221.333,74.5029 221.5,55.5 Z"/></g>
<g><path style="opacity:1" fill="#a1ebdd" d="M 223.5,56.5 C 240.837,56.3334 258.17,56.5001 275.5,57C 258.298,74.0348 241.298,91.2014 224.5,108.5C 223.503,91.3414 223.17,74.008 223.5,56.5 Z"/></g>
<g><path style="opacity:1" fill="#a1ebdd" d="M 222.5,56.5 C 222.833,56.5 223.167,56.5 223.5,56.5C 223.17,74.008 223.503,91.3414 224.5,108.5C 224.44,109.043 224.107,109.376 223.5,109.5C 222.5,91.8459 222.167,74.1792 222.5,56.5 Z"/></g>
<g><path style="opacity:0.264" fill="#42210b" d="M 111.5,110.5 C 111.833,110.5 112.167,110.5 112.5,110.5C 130.736,111.825 149.069,111.825 167.5,110.5C 158.525,111.832 149.191,112.498 139.5,112.5C 130.167,112.333 120.833,112.167 111.5,112C 110.262,111.31 110.262,110.81 111.5,110.5 Z"/></g>
<g><path style="opacity:0.937" fill="#4f4922" d="M 141.5,57.5 C 141.5,57.8333 141.5,58.1667 141.5,58.5C 141.167,58.5 140.833,58.5 140.5,58.5C 139.167,75.8333 139.167,93.1667 140.5,110.5C 149.017,110.826 157.35,110.493 165.5,109.5C 166.167,109.5 166.833,109.5 167.5,109.5C 167.5,109.833 167.5,110.167 167.5,110.5C 149.069,111.825 130.736,111.825 112.5,110.5C 121.167,110.5 129.833,110.5 138.5,110.5C 138.5,93.5 138.5,76.5 138.5,59.5C 138.821,57.9519 139.821,57.2852 141.5,57.5 Z"/></g>
<g><path style="opacity:0.718" fill="#42220c" d="M 154.5,166.5 C 154.5,165.833 154.5,165.167 154.5,164.5C 156.504,163.327 158.004,161.66 159,159.5C 159.5,152.842 159.666,146.175 159.5,139.5C 152.833,139.5 146.167,139.5 139.5,139.5C 139.167,139.5 138.833,139.5 138.5,139.5C 131.833,139.5 125.167,139.5 118.5,139.5C 118.334,145.842 118.5,152.175 119,158.5C 120.03,160.346 121.196,162.013 122.5,163.5C 122.5,164.167 122.5,164.833 122.5,165.5C 120.292,164.106 118.792,162.106 118,159.5C 117.5,152.842 117.334,146.175 117.5,139.5C 96.519,139.001 75.8523,136.501 55.5,132C 72.218,133.245 88.8846,135.245 105.5,138C 143.781,140.379 181.781,138.212 219.5,131.5C 220.833,131.667 222.167,131.833 223.5,132C 202.745,136.417 181.745,138.917 160.5,139.5C 160.666,146.841 160.5,154.174 160,161.5C 158.945,164.056 157.112,165.723 154.5,166.5 Z"/></g>
<g><path style="opacity:1" fill="#a1ebdd" d="M 138.5,139.5 C 138.666,146.175 138.5,152.842 138,159.5C 136.321,163.517 133.321,165.517 129,165.5C 126.498,165.662 124.331,164.995 122.5,163.5C 121.196,162.013 120.03,160.346 119,158.5C 118.5,152.175 118.334,145.842 118.5,139.5C 125.167,139.5 131.833,139.5 138.5,139.5 Z"/></g>
<g><path style="opacity:1" fill="#513726" d="M 138.5,139.5 C 138.833,139.5 139.167,139.5 139.5,139.5C 139.334,145.842 139.5,152.175 140,158.5C 142.824,165.217 147.657,167.217 154.5,164.5C 154.5,165.167 154.5,165.833 154.5,166.5C 153.833,166.5 153.5,166.833 153.5,167.5C 151.167,167.5 148.833,167.5 146.5,167.5C 143.634,166.153 141.134,164.153 139,161.5C 137.506,164.314 135.34,166.314 132.5,167.5C 130.167,167.5 127.833,167.5 125.5,167.5C 124.71,166.599 123.71,165.932 122.5,165.5C 122.5,164.833 122.5,164.167 122.5,163.5C 124.331,164.995 126.498,165.662 129,165.5C 133.321,165.517 136.321,163.517 138,159.5C 138.5,152.842 138.666,146.175 138.5,139.5 Z"/></g>
<g><path style="opacity:1" fill="#a1ebdd" d="M 139.5,139.5 C 146.167,139.5 152.833,139.5 159.5,139.5C 159.666,146.175 159.5,152.842 159,159.5C 158.004,161.66 156.504,163.327 154.5,164.5C 147.657,167.217 142.824,165.217 140,158.5C 139.5,152.175 139.334,145.842 139.5,139.5 Z"/></g>
</svg>

<svg x="500" y="777" xmlns="http://www.w3.org/2000/svg" version="1.1" width="193px" height="193px" style="shape-rendering:geometricPrecision; text-rendering:geometricPrecision; image-rendering:optimizeQuality; fill-rule:evenodd; clip-rule:evenodd" xmlns:xlink="http://www.w3.org/1999/xlink">
<g><path style="opacity:0.901" fill="#422210" d="M 88.5,-0.5 C 89.8333,-0.5 91.1667,-0.5 92.5,-0.5C 95.0897,1.00127 96.423,3.33461 96.5,6.5C 93.7081,16.663 92.8748,26.9964 94,37.5C 95.091,50.5826 101.924,58.7492 114.5,62C 131.5,62.3333 148.5,62.6667 165.5,63C 180.142,68.761 186.808,79.5944 185.5,95.5C 185.468,99.5517 185.135,103.552 184.5,107.5C 187.917,108.617 190.584,110.617 192.5,113.5C 192.5,120.167 192.5,126.833 192.5,133.5C 191.146,135.696 189.146,137.196 186.5,138C 177.173,138.5 167.839,138.666 158.5,138.5C 158.8,146.223 158.467,153.89 157.5,161.5C 164.883,164.263 167.549,169.597 165.5,177.5C 165.333,180.833 165.167,184.167 165,187.5C 163.648,189.749 161.815,191.416 159.5,192.5C 143.833,192.5 128.167,192.5 112.5,192.5C 106.006,188.196 99.3396,184.03 92.5,180C 78.504,179.5 64.504,179.333 50.5,179.5C 50.7693,183.931 50.436,188.265 49.5,192.5C 34.8333,192.5 20.1667,192.5 5.5,192.5C 3.27224,191.623 1.27224,190.29 -0.5,188.5C -0.5,180.833 -0.5,173.167 -0.5,165.5C 1.46052,163.688 3.79385,162.688 6.5,162.5C 5.39721,150.867 5.23054,139.2 6,127.5C 7.69077,113.401 10.0241,99.401 13,85.5C 13.4988,81.5138 13.6655,77.5138 13.5,73.5C 7.28173,73.3951 2.61506,70.7284 -0.5,65.5C -0.5,62.5 -0.5,59.5 -0.5,56.5C 1.62304,54.0787 3.95637,53.9121 6.5,56C 10.2162,60.0482 13.5496,64.3815 16.5,69C 22.1569,69.4994 27.8236,69.6661 33.5,69.5C 35.341,56.7968 37.5077,44.1301 40,31.5C 40.4988,27.5138 40.6655,23.5138 40.5,19.5C 29.8254,18.6645 25.3254,12.9979 27,2.5C 27.7387,1.42575 28.7387,0.759083 30,0.5C 32.8792,1.37576 35.2125,3.04243 37,5.5C 39.2902,8.57989 41.4569,11.7466 43.5,15C 56.8292,15.4999 70.1625,15.6666 83.5,15.5C 84.0804,11.8581 84.5804,8.19139 85,4.5C 85.2572,2.09347 86.4238,0.426808 88.5,-0.5 Z"/></g>
<g><path style="opacity:1" fill="#a1ebdd" d="M 88.5,3.5 C 91.2605,2.91465 92.9272,3.91465 93.5,6.5C 91.9741,9.65382 91.3075,12.9872 91.5,16.5C 90.1667,16.5 88.8333,16.5 87.5,16.5C 87.3718,12.1186 87.7051,7.78529 88.5,3.5 Z"/></g>
<g><path style="opacity:1" fill="#a1ebdd" d="M 29.5,4.5 C 31.371,4.85883 32.871,5.85883 34,7.5C 42.0872,17.3497 41.0872,18.683 31,11.5C 29.7978,9.32253 29.2978,6.9892 29.5,4.5 Z"/></g>
<g><path style="opacity:1" fill="#258906" d="M 90.5,19.5 C 75.1667,19.5 59.8333,19.5 44.5,19.5C 44.7947,21.7354 44.4614,23.7354 43.5,25.5C 43.5,23.1667 43.5,20.8333 43.5,18.5C 59.3422,18.1704 75.0089,18.5037 90.5,19.5 Z"/></g>
<g><path style="opacity:1" fill="#b7c9de" d="M 90.5,19.5 C 90.6641,22.1873 90.4974,24.854 90,27.5C 86.0394,32.5949 82.2061,37.7616 78.5,43C 78.8499,44.2575 79.5165,44.5908 80.5,44C 83.6667,40.1667 86.8333,36.3333 90,32.5C 90.6667,34.5 90.6667,36.5 90,38.5C 86.0394,43.5949 82.2061,48.7616 78.5,54C 78.8499,55.2575 79.5165,55.5908 80.5,55C 84,50.8333 87.5,46.6667 91,42.5C 94.2085,55.5443 102.375,63.211 115.5,65.5C 118.287,66.4767 121.287,66.81 124.5,66.5C 124.5,72.8333 124.5,79.1667 124.5,85.5C 116.493,85.3336 108.493,85.5003 100.5,86C 89.4086,89.9257 83.4086,97.7591 82.5,109.5C 79.4816,109.665 76.4816,109.498 73.5,109C 70.3938,105.368 68.2271,101.201 67,96.5C 66.2888,83.0943 66.6221,69.761 68,56.5C 65,53.8333 62,53.8333 59,56.5C 58.006,61.118 57.506,65.7847 57.5,70.5C 50.5,70.5 43.5,70.5 36.5,70.5C 39.4622,55.6081 41.7955,40.6081 43.5,25.5C 44.4614,23.7354 44.7947,21.7354 44.5,19.5C 59.8333,19.5 75.1667,19.5 90.5,19.5 Z"/></g>
<g><path style="opacity:1" fill="#a1ebdd" d="M 61.5,57.5 C 64.2605,56.9147 65.9272,57.9147 66.5,60.5C 64.9741,63.6538 64.3075,66.9872 64.5,70.5C 63.1667,70.5 61.8333,70.5 60.5,70.5C 60.3718,66.1186 60.7051,61.7853 61.5,57.5 Z"/></g>
<g><path style="opacity:1" fill="#a1ebdd" d="M 2.5,58.5 C 4.37099,58.8588 5.87099,59.8588 7,61.5C 15.0872,71.3497 14.0872,72.683 4,65.5C 2.79777,63.3225 2.29777,60.9892 2.5,58.5 Z"/></g>
<g><path style="opacity:1" fill="#1ca504" d="M 115.5,65.5 C 118.833,65.5 122.167,65.5 125.5,65.5C 125.824,72.3543 125.491,79.021 124.5,85.5C 124.5,79.1667 124.5,72.8333 124.5,66.5C 121.287,66.81 118.287,66.4767 115.5,65.5 Z"/></g>
<g><path style="opacity:1" fill="#a1ebdd" d="M 177.5,108.5 C 147.167,108.5 116.833,108.5 86.5,108.5C 86.5,107.5 86.5,106.5 86.5,105.5C 87.6688,98.162 91.6688,92.9953 98.5,90C 108.42,88.5766 118.42,88.0766 128.5,88.5C 128.5,80.8333 128.5,73.1667 128.5,65.5C 140.171,65.3335 151.838,65.5001 163.5,66C 173.434,68.9334 179.6,75.4334 182,85.5C 182.667,91.8333 182.667,98.1667 182,104.5C 181.252,106.751 179.752,108.084 177.5,108.5 Z"/></g>
<g><path style="opacity:1" fill="#4c200a" d="M 158.5,69.5 C 169.585,70.8958 174.918,77.0625 174.5,88C 172.909,82.9078 169.909,78.2411 165.5,74C 163.212,73.1779 160.878,72.5112 158.5,72C 157.402,71.2303 157.402,70.397 158.5,69.5 Z"/></g>
<g><path style="opacity:1" fill="#258906" d="M 63.5,73.5 C 48.1667,73.5 32.8333,73.5 17.5,73.5C 17.7947,75.7354 17.4614,77.7354 16.5,79.5C 16.5,77.1667 16.5,74.8333 16.5,72.5C 32.3422,72.1704 48.0089,72.5037 63.5,73.5 Z"/></g>
<g><path style="opacity:1" fill="#b7c9de" d="M 63.5,73.5 C 63.6641,76.1873 63.4974,78.854 63,81.5C 59.0394,86.5949 55.2061,91.7616 51.5,97C 51.8499,98.2575 52.5165,98.5908 53.5,98C 56.6667,94.1667 59.8333,90.3333 63,86.5C 63.6667,88.5 63.6667,90.5 63,92.5C 59.0394,97.5949 55.2061,102.762 51.5,108C 51.8499,109.257 52.5165,109.591 53.5,109C 57,104.833 60.5,100.667 64,96.5C 67.2085,109.544 75.3751,117.211 88.5,119.5C 91.2869,120.477 94.2869,120.81 97.5,120.5C 97.5,126.833 97.5,133.167 97.5,139.5C 89.8261,139.334 82.1594,139.5 74.5,140C 63.0408,143.457 56.7074,151.124 55.5,163C 40.7399,163.966 26.0733,163.633 11.5,162C 11,161.5 10.5,161 10,160.5C 9.33333,146.167 9.33333,131.833 10,117.5C 13.5145,105.066 15.6812,92.3988 16.5,79.5C 17.4614,77.7354 17.7947,75.7354 17.5,73.5C 32.8333,73.5 48.1667,73.5 63.5,73.5 Z"/></g>
<g><path style="opacity:1" fill="#a1ebdd" d="M 86.5,105.5 C 86.5,106.5 86.5,107.5 86.5,108.5C 116.833,108.5 147.167,108.5 177.5,108.5C 147.005,109.498 116.338,109.831 85.5,109.5C 85.2322,107.901 85.5655,106.568 86.5,105.5 Z"/></g>
<g><path style="opacity:1" fill="#32184a" d="M 185.5,112.5 C 149.663,112.168 113.996,112.502 78.5,113.5C 77.7109,113.217 77.0442,112.717 76.5,112C 113.002,111.169 149.336,111.336 185.5,112.5 Z"/></g>
<g><path style="opacity:1" fill="#0401fa" d="M 78.5,113.5 C 113.996,112.502 149.663,112.168 185.5,112.5C 186.496,112.414 187.329,112.748 188,113.5C 188.667,120.167 188.667,126.833 188,133.5C 186.933,134.191 185.766,134.691 184.5,135C 175.149,135.832 165.816,135.665 156.5,134.5C 152.664,124.828 145.664,118.995 135.5,117C 118.5,116.667 101.5,116.333 84.5,116C 82.3594,115.427 80.3594,114.594 78.5,113.5 Z"/></g>
<g><path style="opacity:1" fill="#11c603" d="M 88.5,119.5 C 91.8333,119.5 95.1667,119.5 98.5,119.5C 98.824,126.354 98.4907,133.021 97.5,139.5C 97.5,133.167 97.5,126.833 97.5,120.5C 94.2869,120.81 91.2869,120.477 88.5,119.5 Z"/></g>
<g><path style="opacity:1" fill="#a1ebdd" d="M 101.5,119.5 C 113.171,119.333 124.838,119.5 136.5,120C 146.434,122.933 152.6,129.433 155,139.5C 155.924,146.608 155.591,153.608 154,160.5C 153.097,161.701 151.931,162.535 150.5,163C 120.168,163.5 89.8352,163.667 59.5,163.5C 60.1034,152.456 65.77,145.623 76.5,143C 84.8267,142.5 93.16,142.334 101.5,142.5C 101.5,134.833 101.5,127.167 101.5,119.5 Z"/></g>
<g><path style="opacity:1" fill="#4c200a" d="M 131.5,123.5 C 142.585,124.896 147.918,131.062 147.5,142C 145.909,136.908 142.909,132.241 138.5,128C 136.212,127.178 133.878,126.511 131.5,126C 130.402,125.23 130.402,124.397 131.5,123.5 Z"/></g>
<g><path style="opacity:1" fill="#b7c9de" d="M 3.5,166.5 C 55.8344,166.333 108.168,166.5 160.5,167C 161.645,173.752 161.811,180.586 161,187.5C 159.933,188.191 158.766,188.691 157.5,189C 143.5,189.667 129.5,189.667 115.5,189C 109.924,188.437 105.591,185.77 102.5,181C 100.112,179.139 97.4456,177.806 94.5,177C 78.8333,176.333 63.1667,176.333 47.5,177C 46.5363,181.066 46.203,185.233 46.5,189.5C 32.4021,189.965 18.4021,189.465 4.5,188C 4,187.5 3.5,187 3,186.5C 2.20754,179.753 2.37421,173.086 3.5,166.5 Z"/></g>
</svg>
</svg>