<?xml version="1.0" standalone="no"?>
<!DOCTYPE svg PUBLIC "-//W3C//DTD SVG 20010904//EN"
 "http://www.w3.org/TR/2001/REC-SVG-20010904/DTD/svg10.dtd">
<svg version="1.0" xmlns="http://www.w3.org/2000/svg"
 width="300.000000pt" height="300.000000pt" viewBox="0 0 300.000000 300.000000"
 preserveAspectRatio="xMidYMid meet">

<g transform="translate(0.000000,300.000000) scale(0.100000,-0.100000)"
fill="#000000" stroke="none">
<path d="M465 2623 c-88 -20 -150 -65 -188 -137 l-22 -41 0 -945 0 -945 21
-40 c29 -54 70 -94 119 -116 38 -18 93 -19 1103 -19 1173 0 1101 -4 1170 63
19 18 43 50 55 72 l22 40 3 924 c3 1032 6 983 -67 1064 -20 22 -56 50 -81 61
-45 21 -53 21 -1080 22 -569 1 -1044 0 -1055 -3z m2023 -251 c9 -2 12 -184 12
-877 l0 -875 -997 2 -998 3 -3 872 -2 873 282 2 c285 3 1682 2 1706 0z"/>
<path d="M750 2000 l0 -130 750 0 750 0 0 130 0 130 -750 0 -750 0 0 -130z"/>
<path d="M1702 1830 c-98 -26 -184 -73 -259 -143 l-62 -58 -315 1 -316 1 0
-131 0 -130 253 0 252 0 0 -120 0 -120 -252 0 -253 0 0 -130 0 -131 316 1 315
1 62 -58 c150 -140 356 -193 551 -143 113 29 190 73 276 160 87 86 131 163
160 276 36 141 18 294 -52 427 -42 81 -164 203 -245 245 -132 69 -291 88 -431
52z m323 -205 c244 -117 304 -437 119 -635 -186 -199 -525 -149 -645 95 -106
216 -4 472 224 556 81 30 222 22 302 -16z"/>
<path d="M1737 1624 c-4 -4 -7 -61 -7 -126 l0 -118 -120 0 -120 0 0 -130 0
-130 120 0 119 0 3 -112 3 -113 120 0 120 0 3 113 3 112 119 0 120 0 0 130 0
130 -120 0 -119 0 -3 123 -3 122 -116 3 c-63 1 -118 -1 -122 -4z"/>
</g>
</svg>
